<mxfile host="app.diagrams.net" modified="2024-04-14T15:18:19.456Z" agent="Mozilla/5.0 (Windows NT 10.0; Win64; x64) AppleWebKit/537.36 (KHTML, like Gecko) Chrome/123.0.0.0 Safari/537.36" etag="46quSs8JQb2cBwjzBEtn" version="24.2.5" type="google">
  <diagram name="Page-1" id="srkAS2htx7RMPQW0R-DQ">
    <mxGraphModel grid="1" page="1" gridSize="10" guides="1" tooltips="1" connect="1" arrows="1" fold="1" pageScale="1" pageWidth="1169" pageHeight="827" math="0" shadow="0">
      <root>
        <mxCell id="0" />
        <mxCell id="1" parent="0" />
        <mxCell id="9-HYoikvGJvlYdEis6yb-8" value="" style="shape=image;verticalLabelPosition=bottom;labelBackgroundColor=default;verticalAlign=top;aspect=fixed;imageAspect=0;image=data:image/png,iVBORw0KGgoAAAANSUhEUgAABXoAAAR2CAYAAACCgw/OAAAACXBIWXMAAAsTAAALEwEAmpwYAAAAGXRFWHRTb2Z0d2FyZQBBZG9iZSBJbWFnZVJlYWR5ccllPAAAhBxJREFUeNrs3U1y21baNmB0KnP7W4HYVZybvQKzV2D1iEMzK4iyAjMriLIC00OOIq8g1ApCzVkVagWvtAJ/54SHieLoh8QPgUNcVxUadtqgoAckAdw8fM6/vnz5UgAAAAAAL1uMhoOwGrT041eT1frOUeAx3yoBAAAAAOxtGpYPLf3s/4Zl6RDwmG+UAAAAAAAgb4JeAAAAAIDMCXoBAAAAADIn6AUAAAAAyJygFwAAAAAgc4JeAAAAAIDMCXoBAAAAADIn6AUAAAAAyJygFwAAAAAgc4JeAAAAAIDMCXoBAAAAADIn6AUAAAAAyJygFwAAAAAgc4JeAAAAAIDMCXoBAAAAADIn6AUAAAAAyJygFwAAAAAgc4JeAAAAAIDMCXoBAAAAADL3rRIAAAAA/GUxGo7C6vUe//RuslqvVAzowvuRoBcAAADg7y7D8naPf3cdlrFyAV14P9K6AQAAAODvNnv+u4FSAQ17ve8/FPQCAAAA/N1mz393plRAw97s+e9Wgl4AAACAklL/TIAm3l8GB/zzO0EvAAAAwN8tD/i3gl6gKeMD/u1G0AsAAADwd5sD/u25cgENGR/yviXoBQAAAHhgslpvwup+z38+XoyGr1UNaMDeHySF962loBcAAADgn5Z7/rtXhVG9QM0Wo+E0vb/s4zr+z7fKBgAAAPAPV2F5t+e/nYVl3oWdTpM3xeVuslqvHEbI1uzA9ytBLwAAAMAjlgf827PFaHgxWa0v29jR8LPHYXVRbPt5vnrw3+PqJiyXYd/mDinkIY3mPTtgkz+CXq0bAAAAAL6S+vR+PmCT2bF79cafF5YY8PxabEcfP/Y17zdh+Rj+3SYsI0cWui29jxzyodFNer8S9AIAAAA84eqAf/vqwH9fSQptN8X+7SXi6MDf0khBoLvmxf69eaM/Q2FBLwAAAMAjUruD2wM2ebsYDRtv35BC3mVxWBi081HYC90UXpuzYv8Pb6L7h21ZBL0AAAAAT5sd+O+/bzJITV/rnhflQt6dS20coFvS+8aHQ1/LD/8i6AUAAAB4QolRvdHHNDKvCfFx31R8jBgSzx1d6IY4mWN83zhws/i+JOgFAAAAOMC0xDYf4kRpdU7Qlkbhfl/Tw71pMIwG9ntNxwkV5+GPP5XY/GKyWt89/A+CXgAAAIBnTFbrZVh9LrFp7LW5WoyG5zXtSt39fy/qDKKB/YXX3ji+P4TlfYnNP4f3pX9M/ijoBQAAAHjZtDi8hUN0FpZfFqPhMgU7pYRtB2H1tubf6VVRbrQyUP61PI7vB+GPv6b3h0PdP/W6/VZ5AQAAAJ4XvyKdRub+VvIhYkj7a3iMGBbHkXhXaaTwvmYN/WqxN+ilIwzNSW1XpmGJ7yFnFR/u/OuWDTv/+vLli2oDAAAA7GExGk6LwydNes51WsevcN898+9iIPuqoV/r5xd+Nn83LuofXb2vT2HZOATZPE+Kmp8r36UJIh8l6AUAAAA4QANhL8BLfpys1rPn/oGgFwAAAOBAwl7giF4MeSNBLwAAAEAJwl7gCJ5t1/CQoBcAAACgpDTJ0rJorn8u0E/3xXbiteW+Gwh6AQAAACpYjIavw2oelneqAdQgTtI4nazWm0M2EvQCAAAA1GAxGp4X28DX6F6gjDiK92LfVg1fE/QCAAAA1CSN7r1Ii8AX2EcMeC/jMlmt78o+iKAXAAAAoGYp8J0W28D3TEWAR9wW24B3XiXg3RH0AgAAADQoTdg2Dcs4LG9UBHothrtXxTbcXdX5wIJeAAAAgCNJI31j8DsOyyAtz3m750PHr34/FhrFn7dvuHwTljtH6UXxmLU1Stsxys8mLfH1uTp0grVDCHoBAAAAOmoxGu4b3Pw8Wa0vHtl+HFa/7vkY/w2PsVT1F4/JLKw+tPTjHSOe9I0SAAAAAGTv7sD//pjXygj5EvQCAAAAdFAajVvJgT1AR6oO+RL0AgAAAORvqQTQb4JeAAAAgPxpuwA9J+gFAAAA6KZD+utquwA9J+gFAAAA6KAD++s+ajEaDg7453eqDvkS9AIAAACcrsEB/3alXJAvQS8AAABA/sZP/He9e6EnvlUCAAAAgHIWo+G42PbHjcug2Aarb1rYlbdhX75UfIxfw2PUtT83xbYVRFziSOHlZLVeesZAcwS9AAAAAAdI4e40LOdheaUij3oYdr8Ly4cUIn8Oy9VktZ4rEdRL0AsAAACwh8VoGIPdWdHOiN1TEUPfd6GWsY7zyWo9UxKoh6AXAAAA4BmL0TC2ZbgMy1vVqM1ZsR3lOw3ri8lqfaUkUI3J2AAAAACesBgNL8Lqt0LI25QY+P4S6jwPi4njoAJBLwAAAMAjYvgYVj+pxFG8D8tS2AvlCXoBAAAAHohhY1hWxTZ85Hhi7+NNapUBHEjQCwAAAPB3y8KEa215VWxH9g6UAg4j6AUAAABIUrsGIW+7Yth7pY0DHEbQCwAAAFD8OfGadg3dEMP2uTLA/gS9AAAAQO+lVgEzleiUd+G4nCsD7EfQCwAAALAdPfpKGbp3XLRwgP0IegEAAIBeW4yG47B6qxKdFMP3C2WAlwl6AQAAgL6bKUGnXRjVCy8T9AIAAAC9tRgNR4XRvF0XR/VOlQGeJ+gFAAAA+myqBI4TnAJBLwAAANBn50qQhTeL0XCgDPA0QS8AAADQS6ltw5lKZEMoD88Q9AIAAAB9NVICxwtOhaAXAAAA6KuBEmRF0AvPEPQCAAAAfTVWgqy8UQJ4mqAXAAAAACBzgl4AAAAAgMwJegEAAAAAMifoBQAAAADInKAXAAAAACBzgl4AAAAAgMwJegEAAAAAMifoBQAAAADInKAXAAAAACBzgl4AAAAAgMwJegEAAAAAMifoBQAAADgdt2H5ThmgfwS9AAAAAKfjYrJaz8P6s1JAvwh6AQAAAE7D58lqfZX+fBGWeyWB/hD0AgAAAOQvhroXu79MVutNWM2UBfpD0AsAAACQv8sU7v4p/P0yrG6UBvpB0AsAAACQt9vJaj174v+7UB7oB0EvAAAAQN6mT/0fk9V6GVaflAhOn6AXAAAAIF+fU5j7HBOzQQ8IegEAAADy9LcJ2J4yWa3vChOzwckT9AIAAADk6R8TsD3FxGxw+gS9AAAAAPl5bgK2p5iYDU6YoBcAAAAgPweHtqmX72elg9Mk6AUAAADIy/Vktb4qua2J2eBECXoBAAAA8jItu2Hq6XuphHB6BL0AAAAA+fi07wRsz4hB761SwmkR9AIAAADkIbZcqDyh2mS1vgurmXLCaRH0AgAAAOThMoW0lYXHmYfVjZLC6RD0AgAAAHTf7WS1ntX8mBfKCqdD0AsAAADQfbO6H3CyWi/D6lpp4TQIegEAAAC67Tq1WmjCVHnhNAh6AQAAALpt1tQDT1brTVh9UmLIn6AXAAAAoLuuU4uFJs3Ccq/UkDdBLwAAAEB3NT5hWhrVe6nUkDdBLwAAAEA3fZqs1qsj/awY9BrVCxkT9AIAAAB00+xYP2iyWt8VRvVC1gS9AAAAAN3zKbVUOCajeiFjgl4AAACA7pkd+wca1Qt5E/QCAAAAdEsbo3l3jOqFTAl6AQAAALpl1tYPNqoX8iXoBQAAAOiONkfz7hjVCxkS9AIAAAB0x6ztHTCqF/Ik6AUAAADohi6M5t0xqhcyI+gFAAAA6IZZV3bEqF7Ij6AXAAAAoH3XHRrNuyPohYwIegEAAADaN+vaDqVRvZ8cGsiDoBcAAACgXbeT1XrZ0X2bOTyQB0EvAAAAQLtmXd2x1E7i2iGC7hP0AgAAALTnPixXHd9HvXohA4JeAAAAgPbMUy/czgr7F4PoW4cKuk3QCwAAANCeuf0E6iDoBQAAAGjHzWS1XmWyr3OHC7pN0AsAAADQjnkuO5omZbtxyKC7BL0AAAAA7bjKbH/nDhl0l6AXAAAA4Phu0ijZnFw5bNBdgl4AAACA45vntsPaN0C3CXoBAAAAjm+Z6X4b1QsdJegFAAAAOK77yWq9ynTflw4fdJOgFwAAAOC4VvYdqJugFwAAAOC4lrnu+GS1vgurW4cQukfQCwAAAMAhNkoA3SPoBQAAADiupRIAdRP0AgAAABzXQAmAugl6AQAAAI5roARA3QS9AAAAABxioATQPYJeAAAAgOMaZ77/Zw4hdI+gFwAAAOC4Brnu+GI0HDt80E2CXgAAAIDjOluMhoNM933k8EE3CXoBAAAAjm9sv4E6CXoBAAAAju88tx1ejIavw+qdQwfdJOgFAAAAOL53GbZvmDps0F2CXgAAAIB2TDPb3wuHDLpL0AsAAADQjovUDqHzwn5Ow+rMIYPuEvQCAAAAtONVWGaZ7OvM4YJuE/QCAAAAtOf7xWg46vIOhv2bFUbzQucJegEAAADaNe/qjqUQ+oNDBN0n6AUAAABo15vFaDjv2k6l/sFXDg/kQdALAAAA0L73acKzLlkWWjZANgS9AAAAAN3wsSthbxph/MYhgXx8qwQAAAAAnRHD3mKyWs/b+OEP2jW8dSggL0b0AgAAAHTLxzZ69qaJ15aFkBeyJOgFAAAA6J7Ys3eVwtfGhZ9zUWxDXu0aIFNaNwAAAAB0Uwxdf1uMhj+H9WyyWt/V/QPCY4/jYxdG8UL2BL0AAAAA3fZ9WKaL0fAyrOeT1XpT9QEFvHB6BL0AAAAA3fcqLB/ishgNPxfbNgtXh4S+Kdw9T8uZksJpEfQCAAAA5OVdWn5ajIb3Yb0qtsHvYwZpMXIXTpygFwAAACBfcaTv20KQC733jRIAAAAAAORN0AsAAAAAkDlBLwAAAABA5gS9AAAAAACZE/QCAAAAAGRO0AsAAAAAkDlBLwAAAABA5gS9AAAAAACZE/QCAAAAAGRO0AsAAAAAkDlBLwAAAABA5gS9AAAAAACZE/QCAAAAAGRO0AsAAAAAkDlBLwAAAABA5gS9AAAAAACZE/QCAAAAAGRO0AsAAAAAkDlBLwAAAABA5gS9AAAAAACZE/QCAAAAAGRO0AsAAAAAkDlBLwAAAABA5gS9AAAAAACZE/QCAAAAAGRO0AsAAAAAkDlBLwAAAABA5gS9AAAAAACZE/QCAAAAfXWnBFm5VwJ4mqAXAAAA6KuVEjhecCoEvQAAAEBfCQ4dLzgZgl4AAACgr5ZK4HjBqRD0AgAAAL00Wa1jj94blcjGUgngaYJeAAAAoM/mSpCFzymYB54g6AUAAAD6bK4EjhOcAkEvAAAA0FtplOgnlei023CcrpQBnifoBQAAAPpuFpZ7Zej08QFeIOgFAAAAem2yWm/C6lIlOuk6HJ+5MsDLBL0AAABA701W61lY3ahE51woAexH0AsAAACwNS20cOiSHyar9UoZYD+CXgAAAIDij1G9MVQ0grQbPoXjoZ0GHEDQCwAAAJCkfrDfqUSrYsg7VQY4jKAXAAAA4AFhb6uEvFCSoBcAAADgKyns/V+hZ+8x/SjkhfIEvQAAAACPmKzWV2E1Csu1ajTqNiz/DfWeKQWUJ+gFAAAAeMJktd6EZVxsWzncqkjtfg7LKNR4qRRQzbdKAAAAAPC81MphvhgNp2E9C8uZqpQW22HEel7GIF05oB6CXgAAAIA9PQh8Y0uHaVjGYXmjMi+K4W5shbGM61DHOyWBegl6AQAAAA40Wa1XYXWx+/tiNByH1SAtz4n///sadiH2DV6W3HZaVB+RHNtYzPf4d3EfN0buQvMEvQAAAAAV7dtjNgXCdQS9y7KTl6V9qBr0bkyeBt1iMjYAAAAAgMwJegEAAAAAMifoBQAAAADInKAXAAAAACBzgl4AAAAAgMwJegEAAAAAMifoBQAAAADInKAXAAAAACBzgl4AAAAAgMwJegEAAAAAMifoBQAAAADInKAXAAAAACBz3yoBAAAAQK9chOV1xce4U0boFkEvAAAAQI9MVuuVKsDp0boBAAAAACBzgl4AAAAAgMwJegEAAAAAMifoBQAAAADInKAXAAAAACBzgl4AAAAAgMwJegEAAAAAMifoBQAAAADInKAXAAAAACBzgl4AAAAAgMwJegEAAAAAMifoBQAAAADInKAXAAAAACBzgl4AAAAAgMwJegEAAAAAMvetEgAAAAAczV1YrtOfR2F5deD2t2HZpAXgT4JeAAAAgCOZrNarsBrHPy9Gw2VYvT3wIebhMWYqCXxN6wYAAAAAgMwJegEAAADysVIC4DGCXgAAAIB2vC2xzZ2yAY8R9AIAAAAAZE7QCwAAAACQOUEvAAAAAEDmBL0AAAAAR7YYDUdltpus1kvVAx4j6AUAAAA4vtdKANRJ0AsAAAAAkDlBLwAAAABA5gS9AAAAAMc3LrHNtbIBTxH0AgAAAABkTtALAAAAAJA5QS8AAADA8Y1LbLNSNuApgl4AAACAPNwpAfAUQS8AAADA8b1WAqBOgl4AAACA43tTYhutG4AnCXoBAAAA8qB1A/AkQS8AAADAES1Gw1HJTQW9wJMEvQAAAADHVao/72S11roBeJKgFwAAAOC4BkoA1E3QCwAAAHBcgxLb3Cgb8BxBLwAAAMBxlWndoD8v8CxBLwAAAMBxlZmMbaNswHMEvQAAAADHVWZE70bZgOcIegEAAACO602JbTbKBjxH0AsAAABwJIvRcFBy043qAc8R9AIAAAAcz6DkdhulA54j6AUAAAA4nkGZjSar9UbpgOcIegEAAACOZ1BimxtlA14i6AUAAAA4nnGJbe6UDXiJoBcAAADgeF6X2GapbMBLBL0AAAAAx/OmxDZG9AIvEvQCAAAAHMFiNByV3HSlesBLBL0AAAAAxzEoud1G6YCXCHoBAAAAjqPUiN7Jar1ROuAlgl4AAACA4ygT9F4rG7APQS8AAADAcZQJejfKBuxD0AsAAADQsMVo+DqszkpsulE9YB+CXgAAAIDmjUput1Q6YB+CXgAAAIDmjUtut1I6YB+CXgAAAIDmlRnReztZre+UDtiHoBcAAACgeSZiAxol6AUAAABoUIWJ2JaqB+xL0AsAAADQrHHJ7fTnBfYm6AUAAABo1rjkdkulA/Yl6AUAAABolonYgMYJegEAAACa9bbENto2AAcR9AIAAAA0ZDEajktuulQ94BCCXgAAAIDmjEtuZ0QvcBBBLwAAAEBzxmU2mqzWS6UDDiHoBQAAAGjAYjR8XZTrz3utesChBL0AAAAAzRiX3G6pdMChBL0AAAAAzRiX3G6pdMChBL0AAAAAzTgvs5H+vEAZgl4AAACAmi1Gw0FYnZXYVH9eoBRBLwAAAED9zktud6V0QBmCXgAAAID6lQ16l0oHlCHoBQAAAKjRYjR8HVZvS2x6P1mtVyoIlCHoBQAAAKiXtg3A0Ql6AQAAAOol6AWOTtALAAAAUJPUtuFdyc2XKgiUJegFAAAAqE/Z0byfJ6v1nfIBZQl6AQAAAOpTNuhdKh1QhaAXAAAAoAaL0XBQlG/boD8vUImgFwAAAKAeZUfz3kxW643yAVUIegEAAADqcVFyu7nSAVUJegEAAAAqWoyGo7A6K7m5tg1AZYJeAAAAgOrKjua91rYBqIOgFwAAAKCCxWj4uijfn3eugkAdBL0AAAAA1UzD8qrktto2ALUQ9AIAAABUU7Ztw6fJan2nfEAdBL0AAAAAJS1Gw9iywSRsQOsEvQAAAADllR3NeztZrQW9QG0EvQAAAAAlLEbDUVi9Lbn5XAWBOgl6AQAAAMq5qLDtXPmAOgl6AQAAAA60GA0HYfW+5OafJ6v1RhWBOgl6AQAAAA43q7DtpfIBdRP0AgAAAByg4mjeOAnbUhWBugl6AQAAAA4za2lbgCcJegEAAAD2VHE0731YrlQRaIKgFwAAAGB/swrbXk5W6zslBJog6AUAAADYw2I0HBfVRvOahA1ojKAXAAAAYD+zCtteGc0LNEnQCwAAAPCCxWg4Dau3FR5ipopAkwS9AAAAAM9YjIavi2pB7afJar1RSaBJgl4AAACA512E5azC9jMlBJom6AUAAAB4wmI0HITVhwoP8bPRvMAxCHoBAAAAnjavsO19YTQvcCSCXgAAAIBHLEbD2LKhygRsl5PV+k4lgWMQ9AIAAAB8JbVsmFV4iNuwXKokcCyCXgAAAIB/moflVYXtZ0bzAsck6AUAAAB4oIaWDdeT1XquksAxCXoBAAAAksVoOCqqT6A2U0ng2AS9AAAAAMUfIe/ronrLhk+T1XqpmsCxCXoBAAAAtuLkaW8qbH8flgtlBNog6AUAAAB6bzEaTsPqfcWHuTABG9AWQS8AAADQa6kv72XFhzEBG9AqQS8AAADQW6kv71VRrS9vbNkwVU2gTYJeAAAAoM9iyHtW8TFmk9V6o5RAmwS9AAAAQC8tRsN5WL2t+DCxZcOlagJtE/QCAAAAvVPT5GuxZcO5agJdIOgFAAAAeiWFvB9reKjpZLW+U1GgC75VAnp8Yo8N9+PMqrt18eDvxYO/P9WQ//qrvy/TerNb9GgCAADo3L3guKgn5P053PNdqSjQFYJe+nQiH6VlUFTvwVQ88hhvH/m5cXVTbIPfVbENg1c+8QUAAGjl3jDeE9YRzt6E+7oLFQW6RNDLKZ6444jc8YPlTcu79CYt78LyIe3jbbENff9YjPwFAABo/F5xlO7BXlV8KH15gU4S9HJKJ+xp0Y1gdx9nxbbp//u0/zH4jZ8qL331BwAAoJF7xmVRPeSNpgbrAF0k6CXnE/W4+CvcPcv814n7/31cwu8VPx2OYe+V0BcAAKDyvWOdIe+P7tOArhL0ktsJehBWsQ9S/JrM2Yn+mvHi44/Rvg9C38twMbHyDAAAADjoHrLOkPdzuC+bqSrQVYJecjk5T4vt6N23PfvVH4a+cVK3y2I70tdkbgAAAM/fR9YZ8t6ke1KAzhL00uWTcpxU7SKdTM9U5I/ewx/DchlqMy+2o3w3ygIAAPCP+8lpun+qQ/ym5diAG6DrBL108YS8C3jj8kpF/iHWZNfP91NYzwS+AAAAf95TTgshL9BDgl66dDIW8B5u19ZB4AsAALiv3H778X2ND3luvhQgF4JeunAiFvBWtwt8fy62ga9PmwEAgL7dV87D8q7Gh/0u3FstVRfIxTdKQMsn4/Owip+OfiiEvHWILR02oa4XSgEAAPTkvnI36VrdIe9cdYGcGNFLWyfiQbH9tPWtatQuBuY/pbB36hNoAADghO8tz9O9ZZ0Dh4S8QJaM6KWNE/EsrH4vhLxNOwvLr7FHVfoaEwAAwKndW/5SCHkB/mBEL8c8Ccev08QT5hvVOKrYv/c8zjwbLliulAMAAMj83jIOZIn3NnUPHhLyAlkzopdjnYhnYfVbIeRtS/yE+xejewEAgMzvLWOrhk0h5AX4ByN6afokPCj04u2SOLp3HC+OwkXMSjkAAIBM7i3jgJVZsZ2Aum5CXuAkGNFLkyfi+ElrDBOFvN0Se/f+liZrAwAA6Pq95TjdW9Yd8t4XQl7ghBjRS1Mn4llYfVCJTvsp9U2+CBc2d8oBAAB07L6yyVG8MeQd+6YjcEqM6KX2E3FYYlN8IW8eYiuHZWqxAQAA0JV7y3HRzCje6LYQ8gInSNBLnSfi+GnrMizvVCMrcYK8VRrdCwAA0OZ95SANHvq12Ladq9tNWEZCXuAUCXqp62QcQ8JNsQ0Nyc+rYjuyd6oUAABAS/eVs2I7irepwUOfJqv1SOs64FTp0UsdJ+MY8i6LbVhIvuLx+xiOZ2EyAgAA4Ij3lHEi78uimRG8Oz+E+5xL1QZOmRG9VD0hTwsh76n5aGQvAABwhPvJUVji/eQvRXMhb5x07b9CXqAPjOilykl5GlYfVeIkGdkLAAA0dS85CKtZsZ0cukmxH+9YqwagLwS9lD0xTwsh76kT9gIAAHXeRw6K4wS80c/hXuZC1YE+EfRS5uQ8LYS8fSHsBQAAqt5DDorjBbyxVcN5uIdZqjzQN3r0cugJOk68prdRv+jZCwAAlLl/HIRlHv74e3GckPdzWAZCXqCvjOjlkJN0DHnjCdPEa/1jZC8AALDvveM4rKbFccLdKI7inZlwDeg7QS/7nqhfF0LevrsMz4NVuHhaKQUAAPDIfeO02Aa8b4/4Y6/jzwz3KRtHAOg7QS/7nKyFvBTp+C/jyG4XUQAAwIP7xWlY4sRnZ0f80XEU74VvHQL8RdDLPuKJ840yUGzD3qv4VaxwQXWnHAAA0E8ttGd4KPbinbonAfg7QS8vnbxnYfVOJXgghv6X6aIOAADoz/1hW6N3d26LbcC7dDQA/knQy3Mn8XFYfVAJHvE+9es12QEAAJz+veF5sQ142xoEFNs0XIb7j5mjAfA0QS9PncjjJ7VXKsEzfgrPk6XJ2QAA4CTvCUfFduRuDHnbnK/lU7HtxatNA8ALBL085aow+Rp7PE/S5GwuugAAIHMp3J0W23D3rOXduS62Aa+BJQB7EvTy2Ml9FlZvVYI9xIu/eboQBAAA8rv/G6fr+S6Eu9FNsQ14l44OwGEEvXx9ko+f4OrLyyHexZ5d4UJMqw8AAOj+PV9s0zcu/gp3u/JNzjjR2izcV8wdJYByBL18zUmVUs+bcME40MIBAAC6J16rF9tQd1y0N6HaUwS8ADUR9PLw5D8LqzcqQQlxFMC80MIBAAC6cG/3cNRuXJ91cDcFvAA1E/SyuxAYFNsZVaGs2MJhrJcWAAAc/X5uF+zuli4P4ImTrF1q/QZQP0EvO/OiO72ZyPt5NFAGAABoTmbB7s6neL9gYAhAcwS97GZZfasS1OAstgAJF28zpQAAgNru2eKk2XEZF91txfCY+2I7GCSO4N04kgDNEvRSFCZgo14X4UJ07kIOAAAOl9rqPQx2cxyUcxOWy7BcmbAZ4HgEvS4iYl/eM5WgRrEFyCwsU6UAAIBn78dimDso/gp1R0W+LfXi6N3YdzeO3l05ugDHJ+jt90VF7Os0Uwka8D61cNgoBQAA7r3+uPcaPVgGxem0zzN6F6AjBL39FkfzmoCNpswKo3oBAOiR1HYhLuOwPAx3T+2+67b4a/TuxpEH6AZBb38vQOJFx4VK0CCjegEAONV7qd2o3EH6c/xvpz7B9a41Qxy5e+WZANA9gt7+MpqXY5gVRvUCAJCBxWg4fvDXQVqiXZAb/963+U2EuwAZEfT28wLGaF6OxaheAID9r9N3geLO139/6r891Nao0usaHiNO4FVXj9fxC///KbZTqItwFyBTgt5+OndRwxHNCqN6AYCeetCzdfd1/6L4e1h7Kl/3f9uRx6CcXc/dGO4ulQMgT4LefpopAUd0HkeRm4EXADhV6Sv/g+Lv/VqNGKXr4ijsXbi7UQ6A/Al6+3kReqYSHFG8wZmG5VIpAIATuJbeTcI1KoS55GU3ancZFwMxAE6PoLd/9OalreedoBcAyMaDUHe3vFEVMhOD3WXxV7C7URKA0ybo7dfF6iCs3qkELTiLN0v6fQEAHb5WHhfbCbziolcsORLsAvScoLdfzpWAFk3TRScAQOsWo2EcpTtO18iCXXJ0k66vV4VgF4BC0Ns32jbQpvfhhupCLzAAoC3hWiSGunEZF+atIC9xtO6q+CvUXSoJAF8T9PbnonbkYpYOiDdWc2UAAI54HbwLd+Ni4jRycF+kQDetV0brArAPQW9/TJWADhD0AgCNS3NTXKRrYOEuXRbbL2yKB8Gub8ABUJagtz/056UL3oUbr9cuXgGAJoTrjGmxDXjfqAYdE1svbIptmBvXMdBdKQsAdRL09uOCd1Bo20B3GNULANR5rfu62Ia7cTF6l7ZdhyUOatj1073TTxeAYxH09oPRvHTJuBD0AgAVpcEMs7C8Vw2OaDcy9+tFywUAWifo7QdBL56PAMBJEPA+67oj+xGPUde/URh7434dzK6++m/L3R+MygUgB4LefnirBHTIq3CDNtKTDAA4xAm3aNiNEC2Kv0aH7nwdPPYucAzHfXzAP9+E+my8WgDoK0GvCyNowzjduAAA7HNNOw2ryyK/gHc3wnaZ1rvg9s6H3vsxkhYA9ifoPX1jJaCjz8tLZQAAnpPaNMyLbn9DLbYA2BTbEHdT6NcKALRE0Hv6xkqA5yUAkJvFaDgLqw8d2604QneVlo3RpgBAlwh6T5/+vHRR7NM70EMNAPha7OVfbEfxvml5V2Lv3BjoLuOi1QIA0HWC3tO/SIauGqebOACA3fXrtGivF+99kULdsFz5QBoAyI2g97QJeumygRIAANFiNHxdbAPe90f+0XHU7lWxDXaXjgQAkDNB72kbKAEdNlYCAKCFVg27cHeuHQMAcEoEvadtrAR0mBHnANBzi9EwXq/G0PUYrRo+FduRu1cqDwCcIkHvaRsoAR32SgkAoL9SP96PDf+YOHp3HpbLyWp9p+oAwCkT9J62MyWg4zd4Y/3wAKCX1wAXYfVTgz8iBryzcJ0xV20AoC8Evad78exr8eTgtRIAQO+uU+dFc5OuCXgBgN4S9J4uARo5iB9I6JMHAD3RYMgr4AUAek/Qe7oGSgAAQFc0GPL+WOjBCwAg6D1hAyUgA2MlAIDTtxgNL4v6Q97rsFxMVuuVCgMACHoBAIAGLUbDaVh9X/PD/jBZrS9VFwDgL4Le02UyNgAAWpVC3o81PuRNWKZG8QIA/NM3SnCyTMZGDnwgAQAnajEaxvN8naNuP4VlLOQFAHicEb1Am14pAQCcnsVoGAcdXNV4rteqAQDgBYJeAACgbjHkPavhce6LbauGKyUFAHieoBcAAKjNYjSchdXbGh4qhrxaNQAA7EmPXgAAoBaL0XAcVh9qeCghLwDAgQS9AABAZakv77yGhxLyAgCUIOgFAADqECdLq9qXV8gLAFCSoBcAAKgktWx4X/FhhLwAABUIegEAgNJqbNlwIeQFAChP0AsAAFRxUVRv2fDDZLWeKyUAQHmCXqBN90oAAPlajIaDsPpQ8WE+TVbrS9UEAKhG0Hu67pSADPh6JgDkbV5x+5tiOyIYAICKBL2nS4AGAEBj0gRsbys+zHSyWhugAABQA0EvAABQxrzi9j+YfA0AoD6C3tNlZAQ5WCoBAORnMRpOi2oTsF3rywsAUC9B7+kyOgIAgKbMKm4/VUIAgHoJek+XEb3kwAcSAJCZGkbz/jhZrTcqCQBQL0HvidLvjEz4QAIA8jOrsO1tuE6dKSEAQP0EvaftVgnosnCjt1QFAMhHDaN5L1QRAKAZgt7TtlECOuxeCQAgO1WC2jgB25USAgA0Q9B72pZKQIdpLwIAGVmMhuOwelPhIWaqCADQHEHvadsoAR0m6AWAvFQZzftJyyYAgGYJek+bIA3PTwCgssVoOAirdxUeYqaKAADNEvSesMlqLUijyzw/ASAfVUfzbpQQAKBZgt7Td60EdNC9DyIAICvTCtvOlQ8AoHmC3tO3VAI8LwGAshaj4TSsXpXc/FpvXgCA4xD0nj4X1nheAgBVTCtsO1M+AIDj+FYJTlscQbEYDRWCrlnmuNPhtfQ6rEZhGaQlGu+5+SYtu9//TvsKADI498Xz3duSm98azQsAcDyC3n64rnCBDnXLoj9vuLGNge64+CvYrfoaerj9h/Qz4uqm2E5MF5el8BeAjplW2HamfAAAxyPo7YerQtBLt56PnfMg2D0vtuHuqyP96DdpeZ/2477YjviNdbqarNZ3njIAtGhacrv7rp7zAQBOlaC3H5ZKgOfjPy1Gwxjq7pZXHdmtuB/v0vIx7OPnQugLQDvnyXFYnZXc3HkLAODIBL09EL8KHi7UbytcqEOdWh3d09Fw9zm70Pcy7Hus3aX2DgAcybTCtpfKBwBwXILe/ogB0ffKQMs+tzG6J00kc1Fsw91cP/CIoXRs7/A+/D6x7/bMBDcANOy85HY3PpQEADi+b5SgN+ZKQAccdTRv/MppGgX7e7H9oONURrXHntu/ht9tmb5WCwB1n0OrfPPFdScAQAsEvT2RRlXcqgQtO0rQG25Op2HZhD/+WmzbHpyqh4HvyNMLgBqdV9h2rnwAAMcn6O0XvdJo06em2zY8CHg/Fv3qSR0D39/C7x77+L72VAOg4vk0nkvKBr2fTcIGANAOQW+/XCkBp/j863HA+7XYnmIT6+HpBkAFVdo2uN4EAGiJoLdHJqv1Jqw+qwQtuA3Pv9pv/FIP3vi87nvA+1C8Mf8Y6yLwBaCksqN578P5fq58AADtEPT2j4tvsn/eLUbDQexLW2x78Ap4Hxfr8tGEbQAceI6NbRvK9rc3mhcAoEWC3p5JoypNysax1dIfOt58hmUW/vh7se1Ly8seTtg2Vg4AXlDlXCHoBQBokaC3n2ZKwBHVMglbCilXYfmgpKUIfAHYR5W2DYJeAIAWCXr7KV6E3ysDRzKrsnEaxRtHBGvTUI9d4DuPLTCUA4CvlA16hbwAAC0T9PZQGl15qRIcwac0CWApD0bxfq+UtXsflt8FvgA8OO/GkPdVyc0FvQAALftWCXorBr0XFS7mYR/zCjebsyK/Ng1xpPwqLXcP1tHqsRYW4fcchdXr9Nfdn8dp/eYI+xwD3/dhPz6F9axKMA9A9rRtAADImKC3p2LglL4Or98pTfkcnmfLQzdKs33H7d5k8DvepH2Ny6pMSBq2WT346/KReoyLbfA7SuumPpwR+AKgbQMAQMYEvf1mVC9Nujh0gxRqXnX8Ofk57ePyGGFoCsuXX9XoPC1N9CwW+AL0kLYNAAD5+9eXL19Uod8X9bPCqF7qF3vzTg98LsZg+KeO/j5x5G78YOTqsfYLLb5+x2EV61zl5vzFY1kIfAH6cE04L7Yf9h0qtm14rYIA9Oy8OSvay1L+W+bbs/SDydh6Lrw5xDenW5WgRrFP7azEzWUXQ94Ycv4nvE5GYZl3KeRNr99lCtQHYfmhodeySdsA+kHbBgCAzGndQBRHUv6iDNTkct/Rn6kfb7xBfNuh/Y9B9fyQ36NtKYCOI44vQ02nxTZor7utg5YOACdK2wYAgNNgRC9FmiX5WiWoQRxRernnTeVu0rUuhbwxxIyjdy9yDTLTyONB+ON3hRG+AOyn7Gje+3QdCQBABwh62ZkqATW42Ke9QQoIl2F505H9jh90/Du2QTiVkaoPAt8fi+0o5boJfAFOh7YNAAAnQNDLH1K49aNKUMHnfUb1LEbDUVitim6EvDEA/S7s9/hUWxGkPtyx5k2N2hf4AmRM2wYAgNMh6OVPKRC6UQlKiIHpdI+byRg4LivcUNbpc1gGceRrD17bmxhmF9sJ2+4b+jEPA9+RlwRANrRtAAA4ESZja1Aa3RaX8SP/9yYsq3CBvOrYbk/D8pujx6HPm5daNnQo5I1BZ5xM7LKB13zsO7wLOeP69Vf/JNZo95pf7dPmok7xdw77GG/K49LUiOrdpG3Xqc5LLw+ATtO2AQDgRPzry5cvqlCjFO7GC+ZpsV+Qcp8ulOddCUTC7zALqw+OJnuKLRvOX3hOdSXkjZOTndfxAUsKdcdpib9fmUnl4ut/lZZYn+Wxwt848rbYhrJNE/gCdPe6NZ6/fym5+f+M6AWgx+fQWdFebvJf91c8RdBb34s8hj5xhGCV4KQzgUj4feI+vHVkeUEMTkfPhZMdCnnj6+u8SpBa4oOcMmL7lHlYrpruGxx+n/h7fDxi/S+FAgCdun6N78nvSmwa2za8VkEAenwOnRWCXjpI0FvPC3xabEPeuoKs1gPfFGitim70UqW7nj3BpA9ANh14Hn0K+zmt+BqPy7E//Ih9hOdNhqNpNNf8iMfoNr2/zb18AFq9fo3n6P9r47wKACdwHp0Vgl46yGRs1V/c82I7Iq7OkCSGSb/GUbVhGbfxe6WRhOeOMM/4YY+Qd1lkHPLGgDcsm/Qab2OEexxl9UvchxQ2N/FajyFyfJ+5P9LvdBbr2eTvBMBeqlzn+XYGAEAHGdFbwRF7XMZRfRdNf437id9xVujXyyPPyT368pb9Omidfigz6Voa5Rq3O+tY3W/Te8FVA6/1tlps3KdaXx57cjqAnl/Hxm9ulWlDpG0DAM6jRvTSUUb0ln9Rz4vjhLxRDMt+jz8ztVQ4mvDmEd+8PjviPBB7yE73OOllF/LG11fqTx0npjnrYO3jPv2SRvsPan6txxv+cbENk4/pVbpAiiN8Z2kkOADNXsfGc0jZXvNG8wIAdJSgt9zF8UVxvJD3ofgz2wh8p8U23IM4+vL8hcnX4mjYtkeBfyoR8sbXdQw7c5iEMO7jKu1zbVLYO2rp9b4LfP+vjQ+1AHqmyvljrnwAAN2kdcOBUvjwe0d25+diO6nR3RF+765MqkV7Ysg7TmHgc6+PtifxO6gnb3pux5vWd5kelzjiflr3+8CRv7Xw5LEstpPRLb38AGp9j78rea6+De/JAxUEwLl0OCu0bqCDvu3giyWGLnFE2W79nM1uOWL/2nmHyvV9WOJkUY33t4yPnSaGWxbC3r66eC7kffD6aPP5EUei7j1KKfWljfv8JuPjEgPqOLr3fI/jc8hrfpraWFy2eExj0Pw+7Md1sf1Qy8UMQPVr7WmF93VtGwAAOqz1Eb0pPNwto6JaoBDDgFValnWHv2lff+3osTzKhEYpGPvNS6d3vgvPq/kLz40YsP7U8mtgtO/rvsXJx5r8/cd1hr0P6hSPfRfC8Ng/ePbScxGAZ9/X47mvbJuif7cxOTAAdPB8OiuM6KWDjh70phG752lp+qvScXRfHHkwr+OitCNfZX7JH4FvmkStqWM4DauPXj69sU/IOyjab9mw98ku9RGeF6c5Ov27uoPQ9L592aH3v9t0/C6P0boG4IRuSqt8YH8T3nNHqggAgl6665sjvgjGKSj9v2IbEh6jH+ab9MKLE5jFrzZPK87ofp7BMf1jQqPwe25SIFu7FCJ95+XTCz/uGRq2+fX+6OcDQt5xWP1SnG4Lko91v/ZjmJr6Hv+v2H6Y1Laz9N4e3+cuTdwGsLcqk7BdKh8AQLc1PqI3BQ6zdGPeBaVaHHS8bcNzGvuqs5G9J+/HfUaGd+C1sfcIoxNs1/CcH0JdLht43Xd18joTtwE8//49KMpPKByvnwe+RQEAf55X472yEb10zjcNPunj6NlNsQ0Czzr0O78q/hoJNjtghG+uX1WLtf/YxAhfI3tP2ncHtP+Yt7yve41OSje4y6I/kwn+lL5FUdT8uo+je+O3G7oyuncntpX4NfaeTK05APi7KteBV0JeAIDuqz3ojSPm0iQPXQt4v/Yw8N0nKHqd+bHeBb6rNAKzFins/U/RrcCHavbu8Zo+PGjzdb5Xy4b0gc5V0Z+Qd+d9es3X/v4V6h7rOYjHoGO/c5xg6Jf04dZFE787QG7Se6G2DQAAJ662oDdeQMZeicV2goe3GdUgBj8/NdnTtmNi3+LdqLdxHQ84Wa3jJFzxsYS9eYvH75CQN940zlre331//mV67vdR/L03qW1FrdLo3hgc/LfYTn7ZJfEDiJ8KfXwBooui/Ied1+laDwCAjqsl6H3Q9/L7jGvxsMXB+JH//9RmGY5hfG2Bb7oBiDW68bLKUgxNxwf2cr4o2h3NO9vna6Tpa/zve3584839b3t+e6HM63+Z+iR/V3TvA59X6dwUJ+Wc1/mNBoAc1DCad66KAAB5qBz0plGwcRTvqYyWi8HVYwHoqY5keBj4Dqo80GS13hTbkb2fvbSyEsP50SGjdWq4aazqdp+Jxh5MHMZW/PbCVVPtDNIHBfF95MeO/v67Pr6rnnyDA6Aoqo3mvW1iQl8AAJpRKehNE/18PNHa7ALQq5585Tf+vrsRb6V/3wcTNf3o5ZWFT8V2JO/miDeNdZjt+e8ui/715X3Ju2LbzmDcxIOn94B4fP6dnl9dFD+YjN/guEuTcg48LYBTlN7f9OYFAOiJf3358qXMReNulNy7HtXqtuj25HJ1iwHNrEQA+PB5cp6eJ4K2bvphn1GxTxzbuxaPaxxdNNhjH8dh9avD/Kyfiz1bYFR4Hxik94Gu926P73nzfSb3A8hFGpRRtn1RbMUzaPIcAQAZn2NnYfWhpR//X/ctPOWbEk/mGPLGJ9S7ntXqrGe/b7wpqDTCN7zxXBX69nZR/NDiPxVC3mnRbni/737PHOoXxd61qyb71sYPi8ISHz9O2Hbd8fc8bR2AU7oBHRXVetRfCnkBAPJyUND7IOR9o3S9EW8QVunrzQf39UwhT7zR0MqhG+KoxVHF2bNnLe5/HF003+O9alx0fwRpV+z6kl821bs3vRcsHwS+Xe7j/bCtw6W2DkDGqrRduC+0bQAAyM6hI3qXhZC3j+LozfiVhE2FwHcWVv8pjO5tS7xh+184DtMqo3PSSMc2R7df7bn/M4f8YLvRvedN/pAU+Maf0eUevrv3vViT31Ov9nNPESAX4T0r9uWt8oGn0bwAABnau0dvxR5fnJbdKI9SNwEt97LpoximXdRxwxaO3bJod6Tsf14ajZxGYP7usFfyOT1nNk3/oHS8pkX7E/zt4za9980FIEBXpQ/kNxXeU/XmBYCXz7ezQo9eOuibPZ/A8QZcyMvOwxG+00M3fjC691opG3WbTgDTmkLecdFuyHuzZ8uJC4e+stiDfZUuXhqV2rvEnzMIy3fpedtVcTT7T2H5v9S/fOypAnTQvKj2wZnRvAAAmXpxRK+Z69lDDGZm4aZgfuiGKSieFf2b7K5J9+kmbVbng3ZgVP8P+0wgF3urFt0fGZrb6/siTa54FOm8My3y+IDRKF+gM9J11ceK1xBG8wLAy+fceL9tRC+d82zQW8NXv+iXUoFvep5dFHl8dbvrfk7HoNYbtI60Q/j3S60EUh/VXzwNGhFH4F9UnMivKPHeME1LDv3hY5uUuYsuoKUbzniuXlW8lvquzAf3ANDD8+6sEPTSQS+1bpgXgjf2F0flxtnqN4d8pTmGkg++uv1jsR1NwmFiwBSD0IuGRuFMW/79bvbsFzv2VGhMbNvxW2pZMDjGD0zvDXF0+qjYtnv5uePvD3EE8q/pPfCizMSVABVcVbxuvxHyAgDk7cmgN42Me6dElBAD3xh2LAW+jdsFvNOGJ86atvx7Lvf8d+eeEo2LYebv4bV9ecwgM44kTh9kxJ/5v/Tc7+p7hF6+wFGl9kpVv/mgxz0AQOYebd2Qbt5Xhb6p1CN+5Xt26FcLHrR0mHou/k0Mt+IN3WXD4e7uOHShHcJ/XmoZ0JH2En18Ll4WLU7ck56fu6XL30DZ9fK9OsbrFuiPGvryRp/ih8aqCQB7n39nhdYNdNBTQW+bT1hOV6nA98FNTFze9rh+N8VfQdHRQrUOTMJ2n0ZxvrSf+vO2eIyKlgPf9BwYF3+Fvl3+cOhzse3le+WpA1R834utbX6r4T3cBGwAcNg5eFYIeumgfwS9JmDjCOJXrmdlRrWlUZtxlG/Xg5y6xJuvGAZdHnMSrK9qvmm51tfhdx93/ETLX8/XeXGk0eZ7vFfE94n43HnX8XrN23p9A1nfYMaQd1nDNfv/fPAEAAefh9u8/xT08qTHgt42n6z0S+nANz1Xx8V2lG9cn1Louwt3r9q+8apppFBVP6bezS/tazzRvfWyOo3XdwPP5XF6rxh39HkSR+zPi23o28tRden95o/WUUYWwouvl7oGZnwOrzf97QHg8HNxvEcV9NI5fwt6jealJZUDoRQQTIttiPMmwxrE/p0x1F12aVRNRz74+W6fWcDDvq4yPfanrnTLloaf2+P0fjFK6y6d92Jrh6t9nvcndrEcnyNvv3pf3J0Xds+f+DqPIfBGr2N6fGP5Or0mqp7ztGwAgDzvlQW9POnroDd+Jf4nZaElPxY19PhMN0DjB0sXw7/bdJP2x9LVwKIjo2T3OomFff3iJdRp8TkfL4auuhgqpFYP8f1ilJYujPrdje6f9+FCruT7TazRru3FrkbCYE75dVJXyOsmEQCqnZPjvY2gl875OuiNN0RnykKLGpnUKY3e2wU4g+K4IU78SnZ8ba3SzVk2X0vuSHj6//apl6A3q9d4q32nD3j+794vdqN+By2eI3ej/k+2n2+DHyw9FgZv0nKnPzIZvUYG6X2gjpD35/Dcv1BVACh9Xp4Vgl466M+gNwVhvyoJHdFI4PvVG3McFbPrCTlK/3n39+LB35/6Svf1V3//OkDIejRZV94TQg3/tefN7+9eNtm5Sa/zq5y+OvxVADx4sJwdsW7zVLfNqTwZOvANgt17+p8jggthMN1631kW9bSZuQnP6ZGqAkClc/OsEPTSQQ+D3njT+F5J6Jj/z97dJDlxdG0DThPM4V0BIkJz5BUgVgDPSEPECtxeAWIFbq8AMeyRmxUgVmAxVwRiBV+zAr48VIkW7Qb6Rz+VqeuKyJCMbWhOKUtVt44yvwa+V9mMi6reuFbe52M/vMLPGv+ND6rKnudVLFHQfugQ40cfIG06yKwm9C1kQ0VhMPuYG5sMea3LCwDl3y8Levmhu2vP7bhLF8VNzct8Eh2nZkOnqZLszFAJ2OE8jw8an+e5XvQSBW3Yumz/8fQXF4e91ITC6y5+q+Aq4r8fxwe21qTduscXHteP5+pphO/fhcCpXTrCBTk3uImM65/jtLkNI4dCXgCAet1tLyIHqVs7jsNF8ZXo1+2nZgLf3ehCZ50OucOc63/EyPO9yiUKVi6EwiszL4HiPfrROVQYzHVsoVPohc5zAIC6rTp6dfNSCoHvbm4uu7J2n66jwxaB2V8x2tA3OmRPBRVU8toOVwmDv4XA6fyDgLmuzKrfg6NLP65vnm7wt33lmgkAoH6roHeoFBRmFfiOUxP4zpRko3ol/bBx/NfCEer0qB0v15Z3mOVjf6o0VPyaX1kFft+6O9tzXsyFZRIGV6P9oPU0bXZzxzf2OgAAOAyroPexUlCoeO2+yzdGsUGOwHdzutLR63hymfXlHeKf37avlVNr1HKAc2EVCAqDC7elTV0i5B2rLgDAYbjboa9ow20IfDdr2JGfo3eN/zZ2ErfW+GF62o6/2m7f2WoIfuFKYXCcP/8TAqd2HWHzaLvaa/Fp+r6LexOEvAAAByY6envKQEXWA9+xm9Mbu9+Rn+M656d58u0EmkDreTuS4Beu5N7a+fNH6wYLg7dgS128QcgLAHCAIujV0UuN4kb1Y76BepOaDl83oNfzqMCfeZkEvfzXxeA3wqpZagKqr4++ur4fbRdjjF5qvkXgeqTbrhsGfwuB23FmI8Xv6hWv+Wna7Fq8K0JeAIADpaOX2n0NeAS+17r57NI54TqdxfP2eMPPRFi1WurhZfua/9S+flbhr+7EzZ5TVmHuerD7SGWqnV+/CoPD+7Xz9kGFwe18OE7b+2BSyAsAcMAEvRyK9cD3SAffT3XpnHCdDj+dYtzUag3T9fB31ZkYY7l6FABfrv2AqNfO2fiAZtg+CnS5zG3C4FTiOvztHJmk7X4g+WeuzbGXFwDA4bqrBByYuMF6lm+44kboWOB7qV6JP3Tc+K8FBHBbq87E74Ko9jX2ITXB06z95dnqNVhrMdouxPvt+eHieODlwhZcJQxezcVlO+L5vEvzcUcBb3iR/85TLxsAgMN2N3Vn0yXYlQhwomvvSOB7qV7BP8vbdL6rPGzLqkt1FUCtuoBX/34VPn0LnS48D3tdG3gtuF0ZXvJcRy6lzcX11/jF+bhMOwyD2zV4J2n7a8fHtw+G1j8GACDcdRPHARP4dt91OwXjpl3Qy76tv6/+8PV4oQM91gleXuH1fZnhL/4/gS3m4/XC4PX5duUPZfLvF3NtHNcVaTed7vFzP7OkDAAAK5ZugPPAd5xv0ia++titpRuiK+oaXVenefzlJU2BVusE/8xjZYKtuCwMfrn2PhQPqw9j1rvzV+9NEfA+S7vdENSeAwAA/IegF85FyPI639CN8+P4gDtkeqX+PHHM8vGzfAMA27hGWH0Ys3qPebmHnyOWajjyoTQAAJe5k853NQYa0dEzb9ewZP+uexxOlQyACsVSDQMhLwAAP3JHCeBSsZzDvyeD/jOl2Lvhdf7j9gb4k7IBUJFozDhSBgAAfsbSDfBz03aNWLtZ78+j2ODmmusQTtN+vlILANsQ3zZ6F0/aNYNjCYfVtUk8rm8md+a6BQDgMN1tLwht8AKXi87e01jGwYYnezVM11uS4Tg1nU/3lA6ASq9PVtfv/7mOb8PgsFqiTRgMAHAAVkEv8GOx+cok+crkPsUSGlcOeiOUzze5Efbq6gXgkN0mDI7305kSAgCU4246/9oX8GN/5Buiqe6XvRle93/Ix2qSj9k4ne+SDgD811XC4NgI7ruO4NU9hDAYAKA7dPTC1UVH71gZ9uJBu3zGdYP2OF7vlA8AbuVR+ygMBgDosN++fPkSF2hxIWYtS/i1h/lmZVnzXzCfD2apm+t2/51rf3SDv08s+fDUSxcA9k4YDEAt982TtL+lAp943+RH7raPcYFlQzb4tVgr9lgZ9lb7m6yTPG7PcZZwAID9uklncFjdzM5tjgsA8GN31y6eBL3wa8Mk6N2XWL5heN1PLtuN2cbJEg4AUILLwuBvHVNtIPwpXegITsJgAIBvQe9psjs9XMVQCfZqvHYjd2URDucbwxf56WslBIDiPUjn39RZLc8kDAYADt7XNXrbC6Jl8tVmuIr/q/nmIJ8LpvnheY31L+DvBgDszg/DYGsfAvCLe8tJskYvHXR37Xl09f6hJPBLg3SDrtKCLDv+88U6vZOb/I/5zXDcdvkIewGAH3YGX7Jm8Hz90Q02ANBF60HvNAl6ge47yjdfxzft6hX2AgDXcOkGcmtB8Pt0HgAv22FpCABgL74FvfliZJ4vWOLrS5ZvgMM27/jPdy/doqu3Pd8JewGATVgFwE/Xf7G9zogQeNmOr0Fw3HMpGQCwLXcv/PMk2awIDl0JHSi36uoNwl4AYMsep8s7gVdrA8/ax6WlIACATbgY9MY6vcep6ZgDLnEAF+IldJrcuqu3PZYR9kZYbNkaAGBXVmsDfwuB1wLg+drQAQwAXMtvX758+e4X9rxzIHTdp3zB3av9L5nPA18K+DE/5zHIx2O5gb/vOPk2AwDQTaslIL4GwLp/ATpxzzxJ+8vOnngv4EfuXvJr0dEbnXK6euG/DuVkGjcUjzv+M95rz1fPbvsb5TfJadvZO3XuAwA6ZrUExNflptru3w9prfvXDT8AEO5c/IV2zcuJ0sClDuUielnIz/k03+wMN/Eb5XNfLF0Tv9dnL3MAoOMepSb4/SuPd/FtrDxic+348PpoU9dHAEBZ/rN0w0q+OFimZu0ooPF5NF/cP4S/aNwgtDcOJYj17Aa32Zjtwt89jvGsvYECAChZfEtr3l7bzDex5BUAlm6gu+785N+NlQe+c3xAf9eSNv54sMlj0wbGwzzeeMkDAIWLJR9i09l/8vgYzTxrXb8D5QGAuvywozfkN//jZDd6CPF1/t6mukZLUMiGbOtexFq7G65BSZ3NAAA3ucadpfOO35mSAFzpXnGSdPTSQXd+8e/jhftJmSBNDinkbX0o7Oc93nRnSj7m8WHXk2TdXgCgTrEJ7dP0/Vq/Mx2/AFCmnwa9bbD1TJk4cG/bwO/QzAq8UTlt19jdmPaT0l5q1rgDAKhdLPcQwe+/+brqLI/TNvjtKQ0AdNuvOnoj5Ii1Ol8oFQcqulrHB/p3nxX4Mz/Yxs8dH3rlMcxPX5kSAMABWe/4XV/j99mmP1wHAG7vzlX+o3bdSxsTcWgi5B0e4JINK7NCf+5HcQOyjd84vxYmyVIOAMDhig/Vn6dmc7f/l6+55rFOpWUeAKAb7lz1PxzNF+Mk7OVwxGv9kEPe1dItbwv98Z9vMeydJUs5AACER6nZjOjf9W5fZQGA/fjty5cv1/of2vDkudJRqdh88Gg0X5wqxdf5fpSar+qV6k37IZX6AADsVjQMxDX16SE3TwDV3itPUvNB1z48aRuQ4D/uXPd/0NlLpSLgjfVXB0Le75Rei6119rbnw9ik7/fULPMBAMC5WNv3dTpf4sGGbgCwZXdu8j8Je6nQMo+ZboP/zPWoS+kh5rbD3tiwcpjH314xAACXiiUeVhu6CX0BYEuuvXTDuj23qsM2xFfMjtqAk2aej1PTjVG6rW+ul2s1zA/T1GxUAgDAr6/P4trp1PU3UNh98iRZuoEOunOb/7ndgf5/yQ701CO+Yvax3Uiipxxf1bKURXSSzPJxvb+tP6B9s41dp3X3AgBc7fpsvdN3vM1rNQCo3Z3b/gbteqYRbNiBnpo8by84J4d+sdl2wNayVEvcTMSO0INt1iuP2KTtSWrWfgYA4GrXaas1fU/zeKYkAHA9dzbxm8TXbPIYpmYzK9291CS+irEU+H79Sl0t7qWms3e4zT9Edy8AwI3Ft+z+yddrZ3kcb/NDegCoya3W6L1M+3X34/bNGWoSH2LE+r3TQ/zLx9fpUtNpUZMXuzie7c3JtML6AQDsymo936kNlIEO3B9PkjV66aA7m/4N2+7e+JpNfG3Zcg7UJDpBX+cT+rLdoOzQHFf4d4rjOd32H5LPifM8Iuz9M/nWAwDATazW8/1/7X4aQyUBgO9tvKP3IrvQU7HoKjg6pE/SIuSudC7Hh1LPdtEd4lsPAAAbE/shTPI41eUL7PjeOM49OnrpnDvb/gPixZdHLz99kWxMRF2iq+BdPsHPDqijYFLp3+txHvNdrP924VsPzokAADcXDQixgduy7fLtKQkAh2zrHb0X5Tff2I1+kpqvwUNNoit0HEFezX/Jirt6V17sch3m9pPgI+dEAICNXZMf5+u5U6UAtnwfp6OXzrmz6z8wvxjjK8u9PF4la1VSl+gK/XgA3QRHlR/H1+0xvL+jc+KkPSe+MYUAADZyTf7Pal+NXV3TAUAX7Lyjd137phvB73OHggr9ncekxvXCYrmK9iK6ZrEGc3Roz3dY10F7Tnxs+gAAbMTn9vrq2Dq+wAbv3SZJRy8ddGeff3i80eYxzk8fJt1s1OeP1KwXNqmwk+DoAI5frMEc6y+Pd3hOnOcxTNbvBQDYlFge62Wyji8AB2CvHb0X6WajYtFJMGmXLqnCnj/B3LX4IOpo110gbcgcdX5gCgEAbPTablL73hpAtffDOnr5oU4FvWsTZpiacEPgS20+tReV00re3GYHNE/j2D3b5VIObY2jG/wo2bANAGDTBL7ATe/TJknQSwd1MuhdmzjPUtPhq5uN2kRoOC795NyGkHFhfEgB5Kt2A7V91FrgCwCweQJf4Lr3Z3FPKOilczod9K5NoHHy9WXq9L69qCz2JN0uufLvAR638T5uBgS+AABbI/AFrnpfNkmCXjqoiKD3wkQSblCjCA6Pdr0swAbn5jg/vD6wY7bXdZcFvgAAW7vGi+u7413vzwAUdQ88SYJeOqiooLedTMINalZsF0HsYpwfnh/gMdtbd69zIgDA1nwNfPexZBdQxP1vnBsEvXROcUHv2qTqpWY5h+cOIxWKwPeotC6CA9uc7eKNwN66e9vaC3wBADbvU3tdfqoUwNr91yQJeumgYoPetcnVSwJf6lTc18basDHecB4d6DHba3fv2nEYJ+uaAwBs+jqv2KXWgI3fc8X9lqCXzrlT+l8gApU8xvFCb998oRb32jeOZfsmUsJ8jEB6mJrOh0MU3czzfR+vfBymefTy0xfOiwAAG7vO+zdf5x23zQ0A0DnFd/RelN90h6npZHvs8FKZCE9jeYBpAfNwkJrO3kNeQuBDaro+Zh05L46Tbz4AAGzC3pftAvZ+jzVJOnrpoOqC3rVJN06+ukydilgnTNj7zd/tjcBZB45JLzWBr3V8AQBuz3IOcKAEvXRVtUHv2uQbJ4Ev9V5YTrp8ghf2fvO5vQmYduzcGIHvI1MJAOBWXqWC9tUANnI/NUmCXjqo+qC3nYB2o6dmnQ58hb3/OVad6vpoj0+cG585RgAANxbfuhsLX+AwCHrpqoMIetcm4irwfenQU6E3qQl8lx2cexEmxlITOuvPj9VRl7o+2vPjs6TLFwDgNjqzbBew1funSRL00kEHFfSuTcheapZzsDERNepk4NsGifFmJERsxHIO8RW/SQfPkRHMj9uhyxcA4Hp090LlBL101UEGvWsTs5cfYqfUp14KVOZz+9o+7mDXaPxcPmT5/kags5vr5WMWXb5j50kAgGv7O1/jHSkD1EfQS1cddNC7NkGHqenwfewlQWW6Gvju802xq7q+1rKlHQAAru9Darp750oB9RD00lWC3u8n6jA1oZgQg9pE12iEiNOOzbf4eazb+7337c3AssPnyl5qQt+x8yUAwC99bq/Fj5UC6iDopasEvZdP2HFqOnwFUNSmU4GvpRx+qrOb6104hr0k9AUAuIq3qflA30ZtUDhBL10l6P35xI2vKMfktRkRtenUMgHtOrBTc+1SRQS+7XHsJaEvAMDPROPFM0s5QNkEvXSVoPfXkzc6Do/aIYSiNp0JfNu5Nk02/fqRv9tjVUQHyNqavs8cUwCA/3jRpWXVgGvf70ySoJcOEvRefRJHaBET+Q/VoELxNbKjLnSN6u79qc9tbY5L6PC95LgOUxP8WhYHACClN/mabqwMUB5BL10l6L3+ZO6lJvC1pihVXmymDiwToLu3nGN1i/PoKviNIdQHAA7Vh7gesm4vFHdPM0mCXjpI0HvzSd1LTRD1WDWo0KvUdI2e7Xme6e79tWID37XjPEznoa9zKgBwaOJbW0Pr9kJR9zCTJOilgwS9t5/cw9R0+AonqPGC8zjtOfC1bMqVvW2PVfFv+IJfAOBAr72PrNsLxdyzxD2qoJfOEfRubpIPU9N5aO1JXHSaY/sUG+xNa7pJaI/9IFnqAQCo35/5Ou5YGaDz9yiTJOilgwS9m5/s49R0HwqjqM2n1CwRMN3j/NLde73jFTcJ09rWfGuXzlkFv/Go6xcAqIlN2qD79yRxXyropXMEvdud9EdJ5xn1iQ0jjvb5xtJ2eEaI+cjh+KXoyD5Nha/je4XXRAS+F4fzLwBQKmEvdPv+Y5IEvXSQoHe7Ez+6D4+SwJc6xRIBkz0Hvvt8cy31mMU6vqcHcg7u5YcYw9QEv/HchwPd9Ll99F4JAOeiwWJY27ezoJJ7jX3eiwp6+SFB725OABH4Rvfhc9WgQhEejvfVLdqGedPk6/vX8amt2bTmLt+fvGYi9I3z8jA14W8MHcC7ed0t10bsLH62ukjNx2VmHgPAfwh7oZv3FJMk6KWDBL27PRH0UrO+qMCXGr1Je1weIM+vo3Z+Ceuu521qAt9Tpfi2LEi4+CiAvNqNaNyELtsRz1dh7vwKtZ+pMwD88D1W2Avdum+Ie09BL50j6N3PCSE6x47d0FKpv1MT+J7tYW5Fl+Y0j6cOw7V9bmt3fIhdvtc8f8frrNeOsPq1VOF5PV4Xq5D2bO35sh1pUxeZgl4A+ClhL3TrvmCSBL10kKB3vyeGYWo6EN3YUpsIh+LDjOM9Bb7P2j//gUNx4xuJqN+pm4lbvQ7XA+AwvPCfxL8b/OS3iH9/kzWF3//k362HtSvLdnz7532E/YJeALjSNZqwF7pxrT9Jgl46SNDbjROEUIpaReAb3b3He5hXEZLFm+8fDsOtxNIOEfhOlYItz9m4WBX0AsDPCXuhG9euca8p6KVzBL3dOlGMUxNMCXypTWzCNNlHWNh2Vcaf+8hhuJUI7WMd31Pr+bKluRoXq4JeAPg1YS/s/9p1kgS9dNAdJeiONgSLUOpVakIVqEV8ePE6vxku1za72tW8mucR8+pP8+pWYpO72Ejyn3wMz/KYtt9GAABgt6KBYdZ+gw0AvhH0dkx8KpvHJDWb/Ah8qU0Evu+ic28PgW8sHxGB71uH4dYuDX3dbAAA7EyEvcfKAMA6Szd03Mmg30vNcg7PVYMKxaZRR9F1u+N5NUzNcg6WSdm8r2v65jHbx4ZeFP1+N0uWbgCA63qTr7nGygA7v3adJEs30EE6ejsugpL2jfthvImrCJWJUOfftiO0t8N5FW+Kq2VS2KynebzO42M+pvO4AGrXSQYAYPOe52utI2UAIOjoLUzbiThJup6oU3yYcbTLjSXagHlqTm3dajO3WdLty+VzcWYeAsCNvdjHxsdwwNeuk6Sjlw4S9JZ7UhkmgS91ikAw1hs73nHgGxuLxcXxPYdgJ2K36Fk6D37tGu19beY9DQBudQ093PWSaHDA166TJOilgwS95Z9cxqkJfK01So0Xq8ft5oS7mk/32/n0h/LvnODX+1kce0EvANzu+rnnOgp2cu0a942CXjpH0FvPSWacmi5I3YjU5lMek11+Fa1dUzbmk9Bpf9aD37mlHg7ifWxmzgHA7a+h8nWT/RFg+9eukyTopYMEvXWdaKIb8agdAl9qE4FvrN97usM5NU4+QOnS8Y+vIsYFzdyFTZXvYXFMBb0AcHt/52slG7TBdq9dJ0nQSwcJeus84awC35eqQYXep6bDd7bD+RRv4pZz6J7o+p2vhoud4t+74vgJegFgM/63ywYJOMBr17hHFPTSOYLeuk88vdQEVM9VgwrtOvC1nEMZIvxdpvPu36VlH4p5z5qZXwCwMbFe78B1EGzt2nWSBL10kKD3ME5AvdQEVE9Vgwq9SU3gu9zRfHrWzicbIJYlPhhYtiMuis7sSr3X96X44CS65Yft46AdlkkBgM2xXi9s73p2kgS9dJCg97BORHFDHScjHVPUaGeBr+VRqhJr/8ZrJkLf2KH66wWTC6dbz5FefvjR8CEJAOzOq3xdM1EG2Pj17iQJeukgQe9hnpCGqelIfKQaVOZz+9o+zm98ZzuYS738ME0+PKnZ+/ZxFQQv23GwYXD7HhJ67QirX9OVCwDdIxSCzV8TT5Kglw4S9B72iWmcmg5f3VXUZteB7zA1ga+5dLivt9UyEGdrz1M6D4i//fMuXpNXfN320nlQm9L3wW0Yrj0X4AJAueIbTIOuXINADQS9dJWglzhBxVfQJ27iqfSiNpZzmO7wzf7IXOKa1oPibdF1DgCH7e98TXykDLDRez9BL50j6GV1klqtOSqkokY7C3zbuRTdxM+VHQCADhEOwebu+yZJ0EsH3VECQnyNp12kv5fH3ypCZWJJhdf5zXi2tr7oNufSOD/9PZ2v7woAAPt2rAQAdRP08p02pIqu3od5vFERKhNfX3+3o8A31mKNP+N/qekoBgCAfXrUdiECUClLN/BT7WY902R9R+r0No+j0Xyx3MFciotqS6MAALBPsTfAYBfXv1AzSzfQVTp6+am4AGi7Ep8kX0OnPk/z+JjfpKfthxrbnEtxIRB/hk55AAD2JZoOLOEAUClBL1cSnxatBb6+hk5tYuO0CHwn7WZq25pH1u8FAGDfnm57GTMA9kPQy7W0gW8vP32RBL7UJ756s9xB4Dv3wQkAAHukqxegQoJebmQ0X0zbwPdVatZ5glrE19lWge94y/No9cHJn+YRAAA79Gjb17oA7J6gl1tZW3dU4EttIvB9nS+AdxH4Hq/NIwAA2IWJEgDURdDLrbXrjsZFQi/ZaIr6PEhN4Dvf5lpma/PooXkEAMAurnN19QLURdDLxqxtNCWookaP8niXL4ZnWw58lzZsAwBgRyZKAFAPQS8bJ6iico/TeeDb2+I8smEbAADbpqsXoCKCXrbmQlAl8KU2Efh+zBfG0y0HvqsN214kgS8AAJs3UQKAOgh62bo2qBomQRV1ep6awPc4j/tbnEfTNvC18SEAAJukqxegEoJedmYtqBL4UqM/8ljmi+TJlgPfSWo2PhT4AgCwKRMlACifoJedi8A3PwySoIr63MvjZWoC36MtzqGzNvCNeWTjQwAAbuvBNjccBmA3BL3sxVpQ1UsCX+oTge9f+WJ5uc2vwa1tfPgwCXwBALidIyUAKNtvX758UQX2rt3MapKa9U6hNrFUyTjWq97yPIoO3+PUbBQHAADX9TCaCZQBfnnvNUnNtzn34cm27y0pl45eOkFnIpV7kMe7fDEw2+ZX4vIcmrcbHz7J472yAwBwTWMlACiXoJdOWQt8BVXUKDptV4HvYIvzaCbwBQDgBsZKAFAuQS+ddCGo+qAiVCYC339PBv1pu2zJtufRi9QsHwEAAD8Tm7I9UwaAMgl66bQ2qIrOR0EVNYo1qT+2ge/9Lc6jaR498wgAgCsYKwFAmWzGRlFOBv246IjNpu6pBpX53L62j0fzxdkO5tEkNWsHAwDARf+37WtSKJnN2OgqHb0UJToT80Mvj1epCcagFvfaC4Vle9Gw1XmkwxcAgJ+wfANAgQS9FCc+Wc5jks4DX6jJ18D3ZNBftp2325xLAl8AAC4j6AUokKUbKF67mdUkNeudQm0igD0azRenO5hL42RJBwAAGpZvgB/fO8V9k6Ub6BwdvRQvn+CWeYzz04d5vFURKhOh6z/5QmKWx3DLc0mHLwAAK7p6AQoj6KUabeAbFyNP8nivIlTmcR7vBL4AAOyIoBegMIJeqhNfYchjmJrAV0hFbVaB77RdtmSbc0ngCwBwuIZKAFAWQS/VagPfXhJSUadYk/rjHgLfD0oPAHAQ7m37m2QAbJagl+qthVR/5vFZRahMBL7z2Awgj/s7mEuDZHkUAIBDMVQCgHIIejkYo/niOD/08niVBL7U5V5qdnxd7ijwXV8eReALAFCvoRIAlEPQy0EZzRdneUxSE/j+rSJUZhX4RofveAfzaRX4/p7HG+UHAKjOYyUAKIegl4PUBr5H+enDJKCiPg/yeH0y6C93FPjO8xibTwAA9bFOL0A5BL0ctNF8sVwLqHwFndqsAt/ZLi7Q1+bT/yVLpAAA1GKoBABlEPRC+hZQxQWMNUepUXzl7t0OA9/1JVJe5PHJIQAAKNZQCQDK8NuXL19UAS44GfSf5YfYvO2BalCht3kcxQccO5xT4/wQwzpvAABl+ZyvG+8rA3x3fzNJzf4o+/Ak9ktxFLiMjl64RD5pnubRS7oRqdPTPD7mi5NpHr0dzanpWtf8W4cAAKAY93Z1zQjA7Qh64SfacCouaqw3So2epybwneRxf0dzapZHdMyvNm4zrwAAum+gBADdJ+iFK1hbb1TgS43iK0fLHQe+q43bYl79mXTOAwB0maAXoACCXriiCxtMvVERKnMvnQe+4x3Pq+O2c/5/yWaIAABdNFQCgO4T9MI1tcHUOJ1/9RxqEoHv65NBf6eBbzu3Ttt1fC3rAADQLT0lAOg+QS/c0NpXz39PuhCpz4PUBL7zPIZ7mltxQ2FZBwCAblwbAtBxv3358kUVYAPaMGySx2PVoELxYcYkNlPb4/w6yuOpQwEAsBe/52vBuTLA1/uTuPd/uac//sm+7svoPh29sCFxom2/dv4i6UCkPvEBxrt8QTPLo7en+fUsNcs6vDLHAAB27r4SAHSboBc2bDRfTNuNpQS+1CgC348ng/50T4FvLOswWdu87a1DAgCwE0MlAOg2QS9sSQS++WGQmu5Dm0pRm+epCXyP87i/pzl2qssXAAAAGoJe2KLRfHEW3Yep2VRK4EuN/shjGWtU7THw1eULALB9AyUA6DZBL+zAWuAbF0dvVITK3EvNRgQR+B7tea6tunz/L48/ky5fAIBNsUYvQMcJemGH2s7DcWq+ai7wpTYR+P51MuhH4Dve81yLD1eO2y7f39v5pqMeAODmBL0AHffbly9fVAH25GTQH+aHSWo2uILaRDfteDRfzDo056Lbd5zHU4cHAOB68nXdb6oAX+8r4j7+5Z7++CdduseiW3T0wn4vlGZ5DONEnccHFaEyD/J4ly+CZu2HGl2Yc+tLO7ww7wAAAKiFjl7okPbr7pPUBGRQm/d5HI3mi3nH5l0vP6w6fR85TAAAl9PRC9/uIeK+XUcvnSPohW6+aYzzw3Fq1jyF2sR6uZNYs7qDc6+XmsA3hg9cAAC+93vXPrSHPd03TJKglw6ydAN0UD5pT/NDL49XyQZS1Od5Hh/zxdE0j/sdm3uxYeJkbRO3v5PlHQAAVmzIBtBhgl7oqNF8cRaBUzoPfKE2Efgu49PwrgW+7Ryc5xFLTQzyPz7M488k9AUAAKCjBL3QcWuBbwRNb1SEysTyJPGVp2X79aeuzsPo9D2+EPq+dfgAAADoCmv0QmHaNUSneTxWDSr0KTXr904LmY/RiTxMzWZuMayrDQDUzNqgkKzRS3cJeqHcN5Zhfog3F4EvNYrAN5ZNOC1sXkbH7yr0feQwAgCVETBBEvTSXZZugELFiT2PYZzkUxOKQU0e5PFPvoCatR9qlDIv5+1mbhH4/l8e/0vNkivmKAAAAFuloxcqcTLoj1PT4ftANajQ+9Qs6TAreI72UrPMw2qYqwBAaXQSQtLRS3cJeqG+N5yj1AS+1gqlRtEdG4HvsoK52kuCXwCgLAImSIJeukvQC3W+6cQGUUftEPhSo2oC3wvzdpjHoH20/jYA0DUCJkiCXrpL0At1v/lEcBRvQH+oBhX6nMdxjHyhc1bpHI7Q9+Lw4Q0AsC8CJkiCXrpL0AuH8SbUS03g+1w1qFD1ge8l8znGsH2MIQAGAHZBwARJ0Et3CXrhsN6MIgyKQMxXwqnRp9Qs5zA90PkdHfwxx1ePvXbEPz/y8gAANkDABEnQS3cJeuEw35SGqenwFfhSo4MOfH8x93upCX/DKhC+aHiF38q5AwAOk4AJkqCX7hL0wmG/OT1LTYfvA9WgQu9TE/i6CCrjfBTHSYAMAN32e762misDrl37kyTopYPuKAEcrvzmcJpHLz99kZouSKhJhIbvIkBsu9gBALjd/YOQF6DDBL1AXLBN28D3VWo2toKarALf03bpAgAAAKiOoBf4ZjRfTFKzfqfAlxo9zePjyaA/FfgCAABQG0Ev8J3RfHG2Fvi+UREq9Dw1ge8kj/vKAQBwJR+UAKDbBL3ApdrAd5yfPkwCX+oUmycsBb4AAFdypgQA3SboBX5qNF8s28D3SR7vVYTK3Evnge9YOQAAACiVoBe4ktF8MctjmAS+1CkC39cng77AFwDgcjMlAOg2QS9wLWuB74s8PqkIlXmQmsB3nsdQOQAAACiFoBe4kdF8Mc2jlwS+1OlRHu9OBv2ZwBcA4Ku5EgB0m6AXuJUIfPPDII9XeXxWESrzOJ0Hvj3lAAAOmM3YADpO0Avc2mi+OMtjkp/2ksCXOkXg+/Fk0J8KfAGAA6WjF6DjBL3AxqwFvtHh+0ZFqNDz1AS+x3ncVw4A4JCu9VUBoNsEvcA2LgKXeYzz04d5vFURKvRHHsuTQX8i8AUADsB7JQDoPkEvsDVt4PssP33i4pAK3cvjZWoC3yPlAAAqtlQCgO4T9AJbN5ovZnkMUxP4flARKhOB718ng34EvmPlAAAqtFQCgO4T9AI70wa+sX7vizw+qQiVeZDH6zbwHSoHAFARG7EBFOC3L1++qAKwF23343FqOiKhNrFcyUwZrizOBw+UAQA6KRo1ljFieTblwL1sf5KaZdz24Uk0UTkKXEbQC+z7DTI2sjpqh8AXAAC6L5ZjW6am03cmdOIA72MnSdBLBwl6ga68Ua4C35eqAQAAxYlvM53G0PXLAdy/TpKglw4S9AJde8Ps5Yd403yuGgAAUKTo+I0l2iL0PVMOKrxvjXtWQS+dYzM2oFPi0/88xvnpw9R0BQAAAGV5lMfrPGKT2uO2mQOALRP0Ap3UBr7D/PRJEvgCAECJYg+OP/L4eDLoTwW+ANsl6AU6Lb6Sshb4flIRAAAoUizNNo+vvLf7cwCwYYJeoAht4NvLT18kgS8AAJQoOnxjXdMIfIfKAbBZgl6gKKP5YtoGvn/m8VlFAACgOA/yeNeu36u7F2BDBL1AkUbzRezi28vjVRL4AgBAiWL93tnJoD9QCoDbE/QCxRrNF2d5TFIT+P6tIgAAUJxHqQl7nykFwO0IeoHitYHvUX76MI83KgIAAEWJtXv/ORn0x0oBcHOCXqAao/limUdcHP6ex3sVAQCAorwW9gLcnKAXqM5ovpjnMcxPnySBLwAAlETYC3BDgl6gWqP5YtYGvv/L45OKAABAEYS9ADcg6AWqN5ovTvPo5acvksAXAABKIOwFuCZBL3AwRvPFtA18X+XxWUUAAKDTjk8G/YEyAFyNoBc4OKP5YpIfekngCwAAXXYvj9OTQf++UgD8mqAXOEij+eKsDXyjQ+CNigAAQCc9yGOqDAC/JugFDtpovljmMc5PHyaBLwAAdNHTk0H/SBkAfk7QC5C+C3yf5PFeRQAAoFMmJ4N+TxkAfkzQC7BmNF/M8hgmgS8AAHRJrNd7rAwAPyboBbjEWuD7Io9PKgIAAHsXSzgMlQHgcoJegJ8YzRfTPHpJ4AsAAF0wUQKAywl6Aa4gAt/8MMjjVR6fVQQAAPbi8cmgP1YGgP8S9AJc0Wi+OMtjkp/2UhP4AgAAuzdWAoD/EvQCXNNa4PswjzcqAgAAO/XYWr0A/yXoBbih0XyxzGOcmsD3rYoAAMDOjJUA4HuCXoBbagPfZ/npkzzeqwgAAGzd85NB/74yAJwT9AJsyGi+mOUxTE3g+0FFAABgq54pAcA5QS/AhrWB7yA/fZHHJxUBAICtEPQCrBH0AmzJaL6Y5tFLTeD7WUUAAGCjnlq+AeCcoBdgyyLwzQ+9PF4lgS8AAGzSUAkAGoJegB0YzRdneUxSE/j+rSIAALARQyUAaAh6AXaoDXyP8tOHebxREQAAuJWBEgA0BL0AezCaL5Z5jFMT+L5XEQAAuJHHSgDQEPQC7FEb+A7z0ydJ4AsAANd2Mujr6gVIgl6AThjNF7O1wPeTigAAwJXdVwIAQS9Ap7SBby8/fZEEvgAAcBVDJQAQ9AJ00mi+mLaB7595fFYRAAAA4GcEvQAdNpovjvNDL49XSeALAACXsXQDQBL0AnTeaL44y2OSmsD3jYoAAMB3bMYGkAS9AMVoA99xfvowCXwBAACANYJegMKM5otlG/j+nsd7FQEAAAAEvQCFGs0X8zyG+emTJPAFAACAgyboBSjcaL6YtYHv//L4pCIAAABweAS9AJUYzRenefTy0xdJ4AsAwOGYKwGAoBegOqP5YtoGvq/y+KwiAABU7kwJAAS9ANUazReT/NBLAl8AAAConqAXoGKj+eKsDXwHebxREQAAKjRTAgBBL8BBGM0XyzzG+enDJPAFAKAulm4ASIJegIOyFvg+yeO9igAAUME1rs3YAJKgF+BQL4ZneQyTwBcAgLK5lgVoCXoBDtha4Psij08qAgBAYXTzArQEvQBE4DvNo5cEvgAAlGWmBAANQS8A30Tgmx8GebzK47OKAADQcTMlAGgIegH4zmi+OMtjkp/2UhP4AgBAF72Na1dlAGgIegG41Frg+zCPNyoCAEDHnCoBwDlBLwA/NZovlnmMUxP4vlURAAA6QtALsEbQC8CVtIHvs/z0SR7vVQQAgD16Y9kGgO8JegG4lnxBPctjmJrA94OKAACwB1MlAPieoBeAG2kD30F++iKPTyoCAMCOvI9rUWUA+J6gF4BbyRfZ0zx6+emfeXxWEQAAtmyiBAD/dVcJDsPJoN/LDzGGqgFs0TSPcR73lAIAgC3QzQvwA4LeSp0M+vfzQ2yaNGwfhS4AAACUbqIEAJcT9Fam7dyNNz7hLgAAADV5o5sX4McEvZVYC3ifqwYAAACVib0gjpQB4McEvRU4GfQn7RueDl4AAABqNB7NF2fKAPBjgt6CtV28p3k8Ug0AAAAq9XY0X5wqA8DPCXoLdTLoD/LDLOniBQAAoF4f8hgrA8Cv3VGC8pwM+vEmN0tCXgAAAOoV6/JasgHginT0FuZk0H+WH16rBAAAAJWLkHeuDABXo6O3IO1yDVOVAAAAoHIvrMsLcD2C3kKcDPr3U7PxmuUaAAAAqFmEvFNlALgeQW854k3ugTIAAABQMSEvwA0JegvQrsv7VCUAAAComJAX4BZsxtZx7ZIN3ugAAACo1ec8hjZeA7gdHb3dd5SsywsAAECdPuTRE/IC3J6O3g5ru3mPVAIAAIAKvRrNFxNlANgMQW+3xdq8unkBAACoSXTxjnXxAmyWoLfbdPMCAABQi1iLdzKaL46VAmDzBL0ddTLo9/LDI5UAAACgcBHwRrh7PJovzpQDYDsEvd01VAIAAAAKJuAF2CFBb3cNlQAAAIBCvU1NyHsm5AXYDUFvdw2UAAAAgEI9bUcsTRgPn/JY5jHLIzZhmwmAATZL0Ntd1ucFAACgFg/a8Xj1CyeD/ofUBL/T0XwxVyKA2xH0dlC7ERsAAADU7FE7/sj3wdHxe5qEvgA3dkcJOqmnBAAAAByQ6Pb9I49/Twb9eR5jJQG4HkEvAAAA0CXR5fv6ZNA/y2OSx30lAfg1QS8AAADQRffyeJnHUuAL8GuCXgAAAKDLVoFvLOnwTDkALifoBQAAAEoQ6/j+czLoz2xiDvBfgl4AAACgJI9T0917pBQA5wS9AAAAQGliOYe/Tgb9U2v3AjQEvQAAAECpnqamu3egFMChE/QCAAAAJYu1e/89GfTHSgEcMkEvAAAAUIPXJ4P+RBmAQyXoBQAAAGrx8mTQnyoDcIgEvQAAAEBNngt7gUMk6AUAAABqI+wFDo6gFwAAAKhRhL3HygAcCkEvAAAAUKs/Tgb9sTIAh0DQCwAAANTs9cmgP1QGoHaCXgAAAKB2pyeD/n1lAGom6AUAAABqdy+PU2UAaiboBQAAAA7B45NBf6IMQK0Evd20VAIAAADYuJcng/5AGYAaCXo7aDRfLFUBAAAAtmKqBECNBL3d9UEJAAAAYOMenQz6R8oA1EbQ211zJQAAAICtmJwM+veVAaiJoLe7ZkoAAAAAW3Evj2NlAGoi6O2uUyUAAACArXl+Muj3lAGohaC3o0bzxVl+eKsSAAAAsDUTJQBqIejtNl29AAAAsD26eoFqCHo7bDRfTPPDJ5UAAACArRkrAVADQW/3TZQAAAAAtuZICYAaCHo7TlcvAAAAbNW9k0F/rAxA6QS9ZfCGAwAAANvzTAmA0gl6CzCaL2b54W+VAAAAgK14ejLo31cGoGSC3kKM5otYM+iDSgAAAMBW6OoFiiboLcswj8/KAAAAABsn6AWKJugtyGi+OEvCXgAAANiGoRIAJRP0FmY0X8yTsBcAAAA27d7JoD9UBqBUgt4CtWHvIFmzFwAAADZpqARAqQS9hRrNF8v2DeiNagAAAMBGDJQAKJWgt2CxZm8e4/z0f3l8UhEAAAC4FUEvUCxBbwVG88Vp+2b0Klm7FwAAAG7qgRIApRL0VqLt7p3kp708XiTr9wIAAMC12ZANKNVdJahLBL75YRojvzn18uOzdkTH7z0VAgAAgJ+6rwRAiQS9FWs3bDtuR2qD3177r4cqtFMvlQAAAKAI0Sh1qgxAaQS9B6QNfpftP85UZDdOBv24SBD0AgAAALA11uiF7fO1HwAAgHL0lAAokaAXAAAA4FxPCYASCXoBAAAAAAon6AUAAAAAKJzN2IDrepPHVBkAAIA175QAYL8EvcB1LUfzxUwZAACAlZNBXxEA9szSDQAAAAAAhRP0AgAAAAAUTtALAAAAAFA4QS8AAAAAQOEEvQAAAAAAhRP0AgAAAAAUTtALAAAAAFA4QS8AAAAAXN1ACegiQS8AAAAAXN19JaCLBL0AAAAAAIUT9AIAAAAAFE7QCwAAAABQOEEvAAAAAEDhBL0AAAAAAIUT9AIAAAAAFE7QCwAAAABQOEEvAAAAAEDhBL0AAAAAAIUT9AIAAAAAFE7QCwAAAABQOEEvAAAAAEDhBL0AAAAAAIUT9AIAAAAAFE7QCwAAAABQOEEvAAAAAEDhBL0AAAAAAIUT9AIAAAAAFE7QCwAAAABQOEEvAAAAAEDhBL0AAAAAAIUT9AIAAAAAFE7QCwAAAABQOEEvAAAAAEDhBL0AAAAAAIUT9AIAAAAAFE7QCwAAAABQOEEvAAAAAEDhBL0AAAAAAIUT9AIAAAAAFE7QCwAAAABQOEEvAAAAAEDhBL0AAAAAAIUT9AIAAAAAFE7QCwAAAABQOEEvAAAAAEDhBL0AAAAAAIUT9AIAAAAAFE7QCwAAAABQOEEvAAAAAEDhBL0AAAAAAIUT9AIAAAAAFE7QCwAAAABQOEEvAAAAAEDhBL0AAAAAAIUT9AIAAAAAFE7QCwAAAABQOEEvAAAAAEDhBL0AAAAAAIUT9AIAAAAAFE7QCwAAAABQOEEvAAAAAEDhBL0AAAAAAIUT9AIAAAAAFE7QCwAAAABQOEEvAAAAAEDhBL0AAAAAAIUT9AIAAAAAFE7QCwAAAABQOEEvAAAAAEDhBL0AAAAAAIUT9AIAAAAAFE7QCwAAAABQOEEvAAAAAEDhBL0AAAAAAIUT9AIAAAAAFE7QCwAAAABQOEEvAAAAAEDhBL0AAAAAAIUT9AIAAAAAFE7QCwAAAABQOEEvAAAAAEDhBL0AAAAAAIUT9AIAAAAAFE7QCwAAAABQOEEvAAAAAEDhBL0AAAAAAIUT9AIAAAAAFE7QCwAAAABQOEEvAAAAAEDhBL0AAAAAAIUT9AIAAAAAFE7QCwAAAABQOEEvAAAAAEDhBL0AAAAAAIUT9AIAAAAAFE7QCwAAAABQOEEvAAAAAEDhBL0AAAAAAIUT9AIAAAAAFE7QCwAAAABQOEEvAAAAAEDhBL0AAAAAAIUT9AIAAAAAFE7QCwAAAABQOEEvAAAAAEDhBL0AAAAAAIUT9AIAAAAAFE7QCwAAAABQOEEvAAAAAEDhBL0AAAAAAIUT9AIAAAAAFE7QCwAAAABQOEEvAAAAAEDhBL0AAAAAAIUT9AIAAAAAFE7QCwAAAABQOEEvAAAAAEDhBL0AAAAAAIUT9AIAAAAAFE7QCwAAAABQOEEvAAAAAEDhBL0AAAAAAIUT9AIAAAAAFE7QCwAAAABQOEEvAAAAAEDhBL0AAAAAAIUT9AIAAAAAFE7QCwAAAABQOEEvAAAAAEDhBL0AAAAAAIUT9AIAAAAAFE7QCwAAAABQOEEvAAAAAEDhBL0AAAAAAIUT9AIAAAAAFE7QCwAAAABQOEEvAAAAAEDhBL0AAAAAAIW7qwTANb08GfRfKgMAAABAd+joBQAAAAAonKAXAAAAAKBwgl4AAAAAgMIJegEAAAAACifoBQAAAAAonKAXAAAAAKBwgl4AAAAAgMIJegEAAAAACifoBQAAAAAonKAXAAAAAKBwgl4AAAAAgMIJegEAAAAACifoBQAAAAAonKAXAAAAAKBwgl4AAAAAgMIJegEAAAAACifoBQAAAAAonKAXAAAAAKBwgl4AAAAAgMIJegEAAAAACifoBQAAAAAonKAXAAAAAKBwgl4AAAAAgMIJegEAAAAACifoBQAAAAAonKAXAAAAAKBwgl4AAAAAgMIJegEAAAAACifoBQAAAAAonKAXAAAAAKBwgl4AAAAAgMIJegEAAAAACifoBQAAAAAo3F0lAK7pfR4zZQAAANa8VAKA/RL0Atc1G80XE2UAAABWTgZ9QS/Anlm6AQAAAACgcIJeAAAAAIDCCXoBAAAAAAon6AUAAAAAKJygFwAAAACgcIJeAAAAAIDC3VUCAAAAAEpyMujfzw+DPHoXRmp//V6lf/V3+e++iz/nQx5n7fPZ2uNyNF8svQK7SdALAAAAQGe1oe4wNQHu6vGeymzVo7Xnj9vHl+3xiIf3ecxXYzRfzJVs/wS9AAAAAHTGWrC7Go9UpXMep/MAOI7Z59R0/MY41fW7H4JeAAAAAPaqDXefteOpihTnXnvcYvyVj+en/Hiax1S37+4IegEAAADYOeFu1R7k8UeMtdD3WKfvdgl6AQAAANiZk0E/1tg9Sk3Aa63d+q2HvrG2b3T5TpVl8wS9AAAAAGzdyaA/zg8xHqvGwfq6tm9+LRznx69jNF+cKctmCHoBAAAA2Jo24J2kprMTQnRyv8zjKL8+YlmHiWUdbu+OEgAAAACwaRHw5rHMT18nIS+Xi8D3eR4fo8u3XbeZG9LRCwAAAMDGnAz6w/wwTcJdrifW8R2vlnWwpMP16egFAAAA4NZOBv1eHrP89F0S8nIzqyUd5vm19Ew5rkfQCwAAAMCtnAz6k/zwMdlojc2IDwr+iQ8O4gME5bgaQS8AAAAANxLLNOQxT00XJmxafHDwsf0ggV8Q9AIAAABwbW34Fss0PFINtuxlfKCgu/fnBL0AAAAAXNnJoD/QxcsexAcKEfaOleJygl4AAAD+P3t3kNy2sS0AFKn6c/mvQEqV5uJfgflWYL2RhoJXYL0VmF5B5BWIHmoUegWhVhB6roG0A3sF+t1iK09ObIkUQbC7cU4Vik6qEgOXaAD3onkbYCWpyDZvzOJlN+JibRfhPJyG7ZVwfE+hFwAAAIBnXY4Oz8PHRbMstsEunYYtLtQ2Eor/UugFAAAA4KfizMmwzcMf34kGGYmzymOxdywUSwq9AAAAAPxQmjE5D9tr0SBDcXb5H/r2Lin0AgAAAPAPj4q8+vGSu4vUWmTQFHoBAAAA+M7l6PC4WRZ59eOlFO/iIm1DDoBCLwAAAAB/ST+D/71R5KU8p0Mu9ir0AgAAAHAvFXkvRIKCDbbYq9ALAAAAgCIvNRlksVehFwAAAGDgLkeH40aRl7oMrtir0AsAAAAwYJejw1H4mIkEFRpUsVehFwAAAGCgLkeHB+Fj3lh4jXqdprYk1VPoBQAAABigy9Hhq2Y5k1eRl9pdhPP9uPaDVOgFAAAAGKZY5D0SBgZimtqUVEuhFwAAAGBgLkeHk/DxWiQYkDhzfZpmslfpf3zHAAAAAMORfsL+fkCHfBu2G9/8T8XC51BmdsfjnIatyjYOCr0AAAAAA5EWX5tWdlixkLt4tH2NnyeL66++8RedI7G9QSz+jsMWz5f4zzUVgt+EYzwL58d5bd+dQi8AAADAcEyb8hdf+9Ys+wvP43ayuL7xtXYnxHOR/jh//O8vR4fjZjkTNm77hR/mb+F45o+OtQoKvQAAAAADUEFf3k9hm50srme+zf6FuM+bZfH3LM0Mb9NWatF32ixnK1fDYmwAAAAAlUs/xy+xL29sy/CfsP3vyeK6VeTNQ5xFHbZJ2A7CP/4rbJ8LPIyj9PKjGmb0AgAAANSvtH6kscAbC4lTX13eHmb6plm+k7CdFrT778N+z2pp4WBGLwAAAEDF4sJTTTktG2KB922cKarIW5Y0y7cNf/w1bFcF7Xo155lCL2zfKyEAAABqlVoCkO/3E3PSSSG7+yFsIwXesqWC77hZtnS4LWCXj9LLkOIp9MJ2b6hxJUo3KAAAoNacp22WizORr9iyYS/zffwStl9Tz9evvrI6pJYO8UXQhwJ2d5JeihRNoRe2+8DzewE3VAAAgJfmPBdynqy/o1hky71f6oeTxXWcxXvjG6tPLNzHAn6T/+zeeB2blB5vhV7Y7gNPjbSiAAAAOc95xTlPTXJegO1b2P6VioBU7tHs3s8Z7+a7tKBcsX65u7tztkG3DzztAB54/h0u0jPfNgAAyHkqFAuQ45DzLAr/nsbh449Mdy+2ajg2i3ew15D4AuJdprv3KS0oVySFXvDAM9gHHwAAQM7zRM5TdDuB8F3Nw8frDHctzuhs9eJ1Lcn4WvJrqWNfoRe6u0jFnyD8OaBDjg8+B27OAAAwmJxn3OQ7Q3Qb4qzTcYk5T8bfVdGzJen8PI3nwoXztDt69EI3F6fYt3Y+sMPea6yuCwAAQ8l5DsLH0Nq3HYVtWui+TzLcJ0VevhPOhzi+3ma4a6el9upV6IVuxAeeIa40exQufhNfPwAAyHkq9SbkPGcl7XCazZtbywZFXn4o42LvpMR4KvTC5jfRsybPvkd9eZ8eJAAAgDpznkmznN06VJPCZve1me3PF0VenpJpsfc4/Xq7KAq9sNkDT7zZT0Si2J8zAQAAT+c8cS2S9wMPw14pOU/KUU8z2qX7PsdGEs9Jxd6PmY37trQ4KvTCZqbNMH++9Hf7WjgAAECVzoXg3uu0cFTucmozERfwbi3gzarCuRLP36ucxlNpvXp/ubu7cybBCwxwxdlVbuIHbuIAAFBNznMcPn4Xib/chnznINPctA1b/L5ymoj0Ns3ShHXO59guYRG2/Yx2K85Mjy+9ZrnXPMzohZebCMF34gPFmTAAAEA1zOb9Xla/ZIwF3rDNm+UEpNMmryLvJ0VeXiIVUtvMdiv2KL8I2028BuTcu9eMXnjhDbUxm/dHzOoFAIA6cp62WRY2+FvOE/KdVzv+bmLf5FiEz3VR8NuwjeSFbHiex3P8Xa7XgbBNwjme3cswM3rhZSZC8ENm9QIAgJyn6pxnl716U/HrzybfIm+kLy9dXYNuc70OhO23MB4X6cVLNhR6Yf0b6yjzm+rOb+pCAAAARec84yav/pi5OdvBdzKKRaUm3xmODz6fLK7nThE2lWkLh7+LLR3mOS3UqNALBdzUC7OfFm0AAADK1ArBk476nMWXCu/zZllUki8zGOmlwVXmuxln916EcTrNYWcUemF9iphiBAAAVUqLDHmef17b0/cR/564PsxeATH5cLK4vnFqUOJY68BpDsVehV5Y7yZ7XMgNdtc8GAIAQJnGcp48cp4CF8Q7d1rQtfTy4HMhu7vzYq9CL6z/0MPz9tLPiwAAgLKYtLGa/W22b0iTjC4Ki4lCL9sYC3GcvSlol3da7FXohfWMhUCsAADAczzbilUqbE0LjEcscOnRS5dj4aBZ9qcucSxMdvEXK/TC6heY2KvqSCQ8IAIAQKU5z0H42BeJ3eU8Ke+cNuW2z/itz4XqqN6s4LHwfhe/dFbohdW5Wa3ntRAAAICcR7zWMmnKn2A0SwVreLE0I9ZYWJNCL6xuLARrX5g9KAIAQDk8v69nv8siTpr9966GuIRNCwc2GQvxWvS+gkOJs5F77V2t0AurOxCCtXmLCwAA5RgLwdq6LI7XtJjZ+9QKBIY+Fk77bOGg0Aurc5PyoAgAAPBYJ5NbLkeHbVPfmjATpwcvGAvjpr5WkL2NBYVe6PkGDgAAkCnrbKyvqxm9kwpjc2pWL8bC8tra16xehV5Y3ZEQAAAA0KXL0eFxs+xrW6OJb5g1xsK4qfeFUy99qxV6gW0aCwEAAMCT2oqP7bjLBeswFgr2po8Z7gq9AAAAADuQiqBvKj7EvbAd+6ZZ0bHj24xCLwAAAMBuHDtG+KuFyV7lh9lu+y9Q6AUAAADYjSEUQce+Zpwn94623cpEoRfYprkQAAAA/NR4AMe4dzk6HPmqMRbubXUsKPTC6r4IAQAAAF1ICzPtDeRwx75xnnFkLGxOoRdW91UIAACAil0JwdoWG/y3BwOK04FThZ+5HB2OB3S4ZvRCJm6EYG1zIQAAACq2yYSg8YDipHUDT3nlWLuh0AuruxGCXh96AACAfs2FYG0LIYCNjRxrNxR6wUPP1pwsrj30AABAOW6EYC3fQs5jcstqDoQA7m21L7dCL6xO0XI9+nsBAICcp2ZzIVjZvhDA9in0worSm9pbkfDQAwAAleY8sdD7TSTkPECZFHrBjVysAAAAz/FitU1eIEAPFHphPTMhWO0mfrK49tADAABynlrdWpNkLWIFS1t96aHQC2sIN/JZ402kh0MAAPAsL05AVxaOtRsKveCGLkYAAMC9tDbJZ5F41rSD/8d8QPEyo5enfHWs3VDohd3c0Gt2m2Y+AwAAcp5ac54uCpc3A4rZjdOGnxlY60czeiHDC9CtSHgoBACASnOemZznSZOO4nzTDKc1oBm9POfWWNicQi/s8MZeofiQci4MAABQPM/1P895uvwF43wIQbNYN8ZCP8ep0Asvu0lNG2+4f2SWenoBAABlizmPhaj/6bzjnGc+gJjp+YyxsPRl2zUThV54uYkQfCc+BJ4JAwAAlC8VI+Q8/8x5up7pPIT1TazhgvNkabrtv0ChF17+4BMH6BeR+Mu52bwAAFBVzhOLmn7J+F9nXec8qU9v7XmlQi+rjIU4tj4bC5tR6IUNb/RCcC+uOjsRBgAAqE4rBPe+pMk+21BzP+RPJgSxhmnFx3aVXuxslUIvbCA1lP8oEh7+AACg4pxHj9Ut5jypgFxrP+SpU4c1xkKc8Vrrrwh6eaGj0AubmzTDbuHw0QqqAABQtbYZdguHDyHnWWz576hxVu+VXJEXmFR4TLepiL11Cr2wofQzlPjgM8QVaePPl7SvAACA+nOe44Ee/lVPbepq7Ic8MXp4wfVmWuFY6K1uotAL3VyIFs3w+vV+G/DDHgAADDHn+c/ADvu2r5wnFdNryik/mc3LBtqKjuWqr9m8kUIvdHdjnjbD6dcbi7zjPhqJAwAA2eQ8cdbppwHlPMd9LiSWikFXlcTOLz/ZZCzMmzp6g8ex0Pb5Fyr0QrcXo7OBPPic9dCjCgAAyC/naQeQ8zxMbNlFznPclN8WsO2zQE614rWm9BYOk74nyP1yd3fn1IGOXY4Op+HjtNLDe5tmLwMAAHIeOU/3sR2Hjz8Kjd1H67jQ4VgYhY8/C939T+nFWK/M6IUtqPgttyIvAABQa84TZ9L+365znvSz9bcFxu9KkZeOx8Ki0LHwpdlR+xKFXtjug88HDzwAAEDFOU8txd5dtmv4UWynhcU2FrYs1s22xsLbwsbCeFftS7RugC27HB3Gh5+4aMFeoYcQL1KtnrwAAMATOc9FwYew08LMM7GdNvm3yMg2frjODG0sKPRCPxek2Fcm3qCPCtv1j82yebgbNgAAUGXOk3u7gRDbuH+/Zbp7nxuLr9HfWGibfIu9WbzwUOiFfi9Kk/DxvoBdjStbnoUL1My3BgAArJjvvAofMed5V0jO06Z+uCXENrZFmDZ5/VLUwmvsYiyMw8css7Gwk4XXfkShF/q/KB2kG/TrTHfRLF4AAGCTnCfO7j3PNOf5lvbtvLScJ+WSscB1lEEMWxOD2OFYeJXGwusMxsJZTusZKfTC7i5M42b5tjuXh5/Y6D8WeG98OwAAQAc5T5tynn05T6dxPUtx3dtRDM9MDCKja8yu1kTKsm2JQi/s/sI0bnZX8I1vn2aNAi8AALC9nKcNH+0Oc55ps5zBe1NRTPtuk3HVLAu8Fukmx7Fwlra9nsbCJNe2Lwq9kM/F6SBdmGLvpW2/8Y5NwuNbr5k3sQAAQE85T2zp0PaU88TZdrPac55HRa52CzF9mBh0rsBLIWOhTeNhG9eXOJt9mntfb4VeyPcBaJwegLp46x0XGlikm/Tc7F0AACCDnOc45T1d5TzztA1yQktasO0hj3xpoevbQwwbE4Mo+/rSpvFwNKSxoNAL5VykDsL28HnwzH8yf/R5o7ALAAAUkPM8znfWyXkWCpL/iOdD/vhcDhnjFicF3aQ4mrlLbWPhVRoH47A9/LnasfD/AgwAnzC7RCzQ5FAAAAAASUVORK5CYII=;" vertex="1" parent="1">
          <mxGeometry x="43.36" y="100" width="153.26" height="124.83" as="geometry" />
        </mxCell>
        <mxCell id="9-HYoikvGJvlYdEis6yb-9" value="" style="sketch=0;pointerEvents=1;shadow=0;dashed=0;html=1;strokeColor=none;labelPosition=center;verticalLabelPosition=bottom;verticalAlign=top;align=center;fillColor=#515151;shape=mxgraph.mscae.system_center.admin_console" vertex="1" parent="1">
          <mxGeometry x="410" y="260" width="110" height="90" as="geometry" />
        </mxCell>
        <mxCell id="9-HYoikvGJvlYdEis6yb-10" value="Non resident Patient" style="text;html=1;align=center;verticalAlign=middle;resizable=0;points=[];autosize=1;strokeColor=none;fillColor=none;" vertex="1" parent="1">
          <mxGeometry x="1020" y="290" width="130" height="30" as="geometry" />
        </mxCell>
        <mxCell id="9-HYoikvGJvlYdEis6yb-11" value="Nurse" style="text;html=1;align=center;verticalAlign=middle;resizable=0;points=[];autosize=1;strokeColor=none;fillColor=none;" vertex="1" parent="1">
          <mxGeometry x="845" y="530" width="60" height="30" as="geometry" />
        </mxCell>
        <mxCell id="9-HYoikvGJvlYdEis6yb-12" value="&lt;span style=&quot;font-size: 14px;&quot;&gt;Appointment&lt;/span&gt;" style="text;html=1;align=center;verticalAlign=middle;resizable=0;points=[];autosize=1;strokeColor=none;fillColor=none;" vertex="1" parent="1">
          <mxGeometry x="410" y="360" width="100" height="30" as="geometry" />
        </mxCell>
        <mxCell id="uMUtdh5kDPgfI3jK2YXA-14" style="edgeStyle=orthogonalEdgeStyle;rounded=0;orthogonalLoop=1;jettySize=auto;html=1;fontFamily=Helvetica;fontSize=12;fontColor=default;entryX=1;entryY=0.75;entryDx=0;entryDy=0;" edge="1" parent="1" target="0DobpPnAxl0HwfC5g_uy-24">
          <mxGeometry relative="1" as="geometry">
            <mxPoint x="640" y="-180" as="targetPoint" />
            <Array as="points">
              <mxPoint x="735" y="-190" />
              <mxPoint x="660" y="-190" />
              <mxPoint x="660" y="-187" />
            </Array>
            <mxPoint x="735" y="-40" as="sourcePoint" />
          </mxGeometry>
        </mxCell>
        <mxCell id="uMUtdh5kDPgfI3jK2YXA-26" value="checking analytics for&lt;br style=&quot;border-color: var(--border-color); background-color: rgb(251, 251, 251);&quot;&gt;&lt;span style=&quot;background-color: rgb(251, 251, 251);&quot;&gt;growing medical demand&lt;/span&gt;" style="edgeLabel;html=1;align=center;verticalAlign=middle;resizable=0;points=[];fontFamily=Helvetica;fontSize=12;fontColor=default;" connectable="0" vertex="1" parent="uMUtdh5kDPgfI3jK2YXA-14">
          <mxGeometry x="-0.3181" y="-1" relative="1" as="geometry">
            <mxPoint as="offset" />
          </mxGeometry>
        </mxCell>
        <mxCell id="9-HYoikvGJvlYdEis6yb-26" style="edgeStyle=orthogonalEdgeStyle;rounded=0;orthogonalLoop=1;jettySize=auto;html=1;entryX=0.5;entryY=0;entryDx=0;entryDy=0;entryPerimeter=0;" edge="1" parent="1" target="9-HYoikvGJvlYdEis6yb-9">
          <mxGeometry relative="1" as="geometry">
            <mxPoint x="670" y="56" as="sourcePoint" />
          </mxGeometry>
        </mxCell>
        <mxCell id="uMUtdh5kDPgfI3jK2YXA-34" value="writing Prescription&lt;div&gt;&amp;nbsp;for patient&lt;div&gt;&lt;br&gt;&lt;/div&gt;&lt;/div&gt;" style="edgeLabel;html=1;align=center;verticalAlign=middle;resizable=0;points=[];fontFamily=Helvetica;fontSize=12;fontColor=default;" connectable="0" vertex="1" parent="9-HYoikvGJvlYdEis6yb-26">
          <mxGeometry x="-0.5092" y="-3" relative="1" as="geometry">
            <mxPoint x="23" y="-22" as="offset" />
          </mxGeometry>
        </mxCell>
        <mxCell id="0DobpPnAxl0HwfC5g_uy-29" style="edgeStyle=orthogonalEdgeStyle;rounded=0;orthogonalLoop=1;jettySize=auto;html=1;" edge="1" parent="1" target="0DobpPnAxl0HwfC5g_uy-24">
          <mxGeometry relative="1" as="geometry">
            <mxPoint x="150" y="-260" as="targetPoint" />
            <Array as="points">
              <mxPoint x="120" y="-235" />
            </Array>
            <mxPoint x="120" y="-180" as="sourcePoint" />
          </mxGeometry>
        </mxCell>
        <mxCell id="uMUtdh5kDPgfI3jK2YXA-20" value="checking analytics &lt;br&gt;for growing deseases" style="edgeLabel;html=1;align=center;verticalAlign=middle;resizable=0;points=[];fontFamily=Helvetica;fontSize=12;fontColor=default;" connectable="0" vertex="1" parent="0DobpPnAxl0HwfC5g_uy-29">
          <mxGeometry x="-0.2449" y="-1" relative="1" as="geometry">
            <mxPoint as="offset" />
          </mxGeometry>
        </mxCell>
        <mxCell id="0DobpPnAxl0HwfC5g_uy-1" value="" style="image;html=1;image=img/lib/clip_art/people/Doctor_Woman_128x128.png" vertex="1" parent="1">
          <mxGeometry x="810" y="390" width="160" height="150" as="geometry" />
        </mxCell>
        <mxCell id="0DobpPnAxl0HwfC5g_uy-2" value="" style="image;html=1;image=img/lib/clip_art/people/Doctor_Man_128x128.png" vertex="1" parent="1">
          <mxGeometry x="55" y="-173" width="150.01" height="103" as="geometry" />
        </mxCell>
        <mxCell id="0DobpPnAxl0HwfC5g_uy-24" value="" style="image;html=1;image=img/lib/clip_art/finance/Graph_128x128.png" vertex="1" parent="1">
          <mxGeometry x="400" y="-330" width="220" height="190" as="geometry" />
        </mxCell>
        <mxCell id="0DobpPnAxl0HwfC5g_uy-25" style="edgeStyle=orthogonalEdgeStyle;rounded=0;orthogonalLoop=1;jettySize=auto;html=1;entryX=0.717;entryY=-0.014;entryDx=0;entryDy=0;entryPerimeter=0;" edge="1" parent="1" source="0DobpPnAxl0HwfC5g_uy-24" target="9-HYoikvGJvlYdEis6yb-9">
          <mxGeometry relative="1" as="geometry">
            <Array as="points">
              <mxPoint x="490" y="259" />
            </Array>
            <mxPoint x="490" y="250" as="targetPoint" />
          </mxGeometry>
        </mxCell>
        <mxCell id="0DobpPnAxl0HwfC5g_uy-28" value="analytical data" style="text;html=1;align=center;verticalAlign=middle;resizable=0;points=[];autosize=1;strokeColor=none;fillColor=none;" vertex="1" parent="1">
          <mxGeometry x="490" y="-152" width="100" height="30" as="geometry" />
        </mxCell>
        <mxCell id="uMUtdh5kDPgfI3jK2YXA-1" value="&amp;nbsp;doctor" style="text;html=1;align=center;verticalAlign=middle;resizable=0;points=[];autosize=1;strokeColor=none;fillColor=none;" vertex="1" parent="1">
          <mxGeometry x="89.99" y="-70" width="60" height="30" as="geometry" />
        </mxCell>
        <mxCell id="J7KTLNKUyKVfkh-2gsin-2" value="" style="image;html=1;image=https://p7.hiclipart.com/preview/435/63/646/%E8%AA%BF%E5%89%A4-pharmacist-physician-pharmacy-medical-prescription-pharmacist.jpg;" vertex="1" parent="1">
          <mxGeometry x="670" y="-30" width="130" height="120" as="geometry" />
        </mxCell>
        <mxCell id="J7KTLNKUyKVfkh-2gsin-3" value="&lt;span style=&quot;background-color: rgb(255, 255, 255);&quot;&gt;Prescription&lt;/span&gt;" style="text;html=1;align=center;verticalAlign=middle;resizable=0;points=[];autosize=1;strokeColor=none;fillColor=none;" vertex="1" parent="1">
          <mxGeometry x="700" y="80" width="90" height="30" as="geometry" />
        </mxCell>
        <mxCell id="J7KTLNKUyKVfkh-2gsin-11" value="" style="image;html=1;image=https://images.rawpixel.com/image_png_800/cHJpdmF0ZS9sci9pbWFnZXMvd2Vic2l0ZS8yMDIzLTA4L3Jhd3BpeGVsX29mZmljZV8yN19hX3Bob3RvX29mX2hvc3BpdGFsX2JlZF9pc29sYXRlZF93aGl0ZV9iYWNrZ185NzJiYjhjZS02OGEzLTQ4MmItOTE4YS1hOTNjMDUzNDNmNmEucG5n.png;" vertex="1" parent="1">
          <mxGeometry x="50" y="430" width="190" height="150" as="geometry" />
        </mxCell>
        <mxCell id="J7KTLNKUyKVfkh-2gsin-12" value="" style="endArrow=classic;html=1;rounded=0;entryX=0;entryY=0.75;entryDx=0;entryDy=0;" edge="1" parent="1" target="0DobpPnAxl0HwfC5g_uy-1">
          <mxGeometry width="50" height="50" relative="1" as="geometry">
            <mxPoint x="280" y="500" as="sourcePoint" />
            <mxPoint x="530" y="530" as="targetPoint" />
            <Array as="points">
              <mxPoint x="250" y="500" />
            </Array>
          </mxGeometry>
        </mxCell>
        <mxCell id="J7KTLNKUyKVfkh-2gsin-13" value="Take care of admitted patient" style="edgeLabel;html=1;align=center;verticalAlign=middle;resizable=0;points=[];" connectable="0" vertex="1" parent="J7KTLNKUyKVfkh-2gsin-12">
          <mxGeometry x="0.1438" relative="1" as="geometry">
            <mxPoint as="offset" />
          </mxGeometry>
        </mxCell>
        <mxCell id="J7KTLNKUyKVfkh-2gsin-15" value="Resident patient" style="text;html=1;align=center;verticalAlign=middle;resizable=0;points=[];autosize=1;strokeColor=none;fillColor=none;" vertex="1" parent="1">
          <mxGeometry x="55" y="238" width="110" height="30" as="geometry" />
        </mxCell>
        <mxCell id="J7KTLNKUyKVfkh-2gsin-16" value="" style="endArrow=classic;html=1;rounded=0;" edge="1" parent="1" source="9-HYoikvGJvlYdEis6yb-8" target="uMUtdh5kDPgfI3jK2YXA-1">
          <mxGeometry width="50" height="50" relative="1" as="geometry">
            <mxPoint x="120" y="80" as="sourcePoint" />
            <mxPoint x="160" y="30" as="targetPoint" />
          </mxGeometry>
        </mxCell>
        <mxCell id="J7KTLNKUyKVfkh-2gsin-17" value="Supervise" style="edgeLabel;html=1;align=center;verticalAlign=middle;resizable=0;points=[];" connectable="0" vertex="1" parent="J7KTLNKUyKVfkh-2gsin-16">
          <mxGeometry x="0.0835" y="-1" relative="1" as="geometry">
            <mxPoint as="offset" />
          </mxGeometry>
        </mxCell>
        <mxCell id="J7KTLNKUyKVfkh-2gsin-18" value="" style="endArrow=classic;html=1;rounded=0;" edge="1" parent="1">
          <mxGeometry width="50" height="50" relative="1" as="geometry">
            <mxPoint x="130" y="450" as="sourcePoint" />
            <mxPoint x="119.4" y="268" as="targetPoint" />
          </mxGeometry>
        </mxCell>
        <mxCell id="J7KTLNKUyKVfkh-2gsin-19" value="Taking bed" style="edgeLabel;html=1;align=center;verticalAlign=middle;resizable=0;points=[];" connectable="0" vertex="1" parent="J7KTLNKUyKVfkh-2gsin-18">
          <mxGeometry x="0.0835" y="-1" relative="1" as="geometry">
            <mxPoint as="offset" />
          </mxGeometry>
        </mxCell>
        <mxCell id="J7KTLNKUyKVfkh-2gsin-21" value="" style="shape=image;verticalLabelPosition=bottom;labelBackgroundColor=default;verticalAlign=top;aspect=fixed;imageAspect=0;image=https://cdn-icons-png.flaticon.com/512/2786/2786261.png;" vertex="1" parent="1">
          <mxGeometry x="1003" y="133.17000000000002" width="165.54" height="134.83" as="geometry" />
        </mxCell>
        <mxCell id="J7KTLNKUyKVfkh-2gsin-22" value="" style="endArrow=classic;html=1;rounded=0;exitX=-0.023;exitY=0.616;exitDx=0;exitDy=0;exitPerimeter=0;" edge="1" parent="1" source="J7KTLNKUyKVfkh-2gsin-11">
          <mxGeometry width="50" height="50" relative="1" as="geometry">
            <mxPoint x="-90" y="510" as="sourcePoint" />
            <mxPoint x="60" y="-100" as="targetPoint" />
            <Array as="points">
              <mxPoint x="-90" y="510" />
              <mxPoint x="-90" y="-100" />
            </Array>
          </mxGeometry>
        </mxCell>
        <mxCell id="J7KTLNKUyKVfkh-2gsin-23" value="Duty Doctor" style="edgeLabel;html=1;align=center;verticalAlign=middle;resizable=0;points=[];" connectable="0" vertex="1" parent="J7KTLNKUyKVfkh-2gsin-22">
          <mxGeometry x="0.0358" y="3" relative="1" as="geometry">
            <mxPoint y="-1" as="offset" />
          </mxGeometry>
        </mxCell>
        <mxCell id="J7KTLNKUyKVfkh-2gsin-28" value="" style="image;html=1;image=https://www.clipartmax.com/png/middle/285-2859554_diagnostic-icon-medical-diagnosis.png;" vertex="1" parent="1">
          <mxGeometry x="992.12" y="-262" width="185.77" height="140" as="geometry" />
        </mxCell>
        <mxCell id="J7KTLNKUyKVfkh-2gsin-29" value="&lt;span style=&quot;font-weight: 700;&quot;&gt;DIAGNOSIS REPORT&lt;/span&gt;" style="text;html=1;align=center;verticalAlign=middle;resizable=0;points=[];autosize=1;strokeColor=none;fillColor=none;" vertex="1" parent="1">
          <mxGeometry x="1015.77" y="-122" width="140" height="30" as="geometry" />
        </mxCell>
        <mxCell id="J7KTLNKUyKVfkh-2gsin-30" value="" style="endArrow=classic;html=1;rounded=0;exitX=0.499;exitY=0.998;exitDx=0;exitDy=0;exitPerimeter=0;entryX=1;entryY=0.5;entryDx=0;entryDy=0;" edge="1" parent="1" source="J7KTLNKUyKVfkh-2gsin-29" target="J7KTLNKUyKVfkh-2gsin-2">
          <mxGeometry width="50" height="50" relative="1" as="geometry">
            <mxPoint x="920" y="-83.5" as="sourcePoint" />
            <mxPoint x="930" y="-153.5" as="targetPoint" />
            <Array as="points">
              <mxPoint x="1086" y="30" />
            </Array>
          </mxGeometry>
        </mxCell>
        <mxCell id="J7KTLNKUyKVfkh-2gsin-32" value="" style="endArrow=classic;html=1;rounded=0;exitX=0;exitY=0.75;exitDx=0;exitDy=0;entryX=0.999;entryY=0.247;entryDx=0;entryDy=0;entryPerimeter=0;" edge="1" parent="1" source="J7KTLNKUyKVfkh-2gsin-21" target="9-HYoikvGJvlYdEis6yb-9">
          <mxGeometry width="50" height="50" relative="1" as="geometry">
            <mxPoint x="590" y="310" as="sourcePoint" />
            <mxPoint x="640" y="260" as="targetPoint" />
          </mxGeometry>
        </mxCell>
        <mxCell id="J7KTLNKUyKVfkh-2gsin-33" value="Taking appointment&amp;nbsp;" style="edgeLabel;html=1;align=center;verticalAlign=middle;resizable=0;points=[];" connectable="0" vertex="1" parent="J7KTLNKUyKVfkh-2gsin-32">
          <mxGeometry x="0.0916" relative="1" as="geometry">
            <mxPoint as="offset" />
          </mxGeometry>
        </mxCell>
        <mxCell id="J7KTLNKUyKVfkh-2gsin-34" value="Bed" style="text;html=1;align=center;verticalAlign=middle;resizable=0;points=[];autosize=1;strokeColor=none;fillColor=none;" vertex="1" parent="1">
          <mxGeometry x="120" y="560" width="40" height="30" as="geometry" />
        </mxCell>
        <mxCell id="J7KTLNKUyKVfkh-2gsin-36" value="" style="endArrow=classic;html=1;rounded=0;entryX=1.024;entryY=0.62;entryDx=0;entryDy=0;entryPerimeter=0;exitX=0.091;exitY=0;exitDx=0;exitDy=0;exitPerimeter=0;" edge="1" parent="1" source="9-HYoikvGJvlYdEis6yb-9" target="0DobpPnAxl0HwfC5g_uy-2">
          <mxGeometry width="50" height="50" relative="1" as="geometry">
            <mxPoint x="510" y="100" as="sourcePoint" />
            <mxPoint x="560" y="50" as="targetPoint" />
            <Array as="points">
              <mxPoint x="420" y="-109" />
            </Array>
          </mxGeometry>
        </mxCell>
        <mxCell id="7hVJzZ64n1SEM6ACB_I3-1" value="Taking Appointments" style="edgeLabel;html=1;align=center;verticalAlign=middle;resizable=0;points=[];" connectable="0" vertex="1" parent="J7KTLNKUyKVfkh-2gsin-36">
          <mxGeometry x="0.5328" y="4" relative="1" as="geometry">
            <mxPoint as="offset" />
          </mxGeometry>
        </mxCell>
      </root>
    </mxGraphModel>
  </diagram>
</mxfile>
